<?xml version="1.0" encoding="utf-8"?>
<!-- Generator: Adobe Illustrator 22.1.0, SVG Export Plug-In . SVG Version: 6.00 Build 0)  -->
<svg version="1.1" id="Слой_1" xmlns="http://www.w3.org/2000/svg" xmlns:xlink="http://www.w3.org/1999/xlink" x="0px" y="0px"
	 viewBox="0 0 654 128" style="enable-background:new 0 0 654 128;" xml:space="preserve">
<style type="text/css">
	.st0{fill:#293086;}
	.st1{fill:#282F85;}
</style>
<g>
	<path class="st0" d="M69.9,5.2c20.3,0,40.7,0,61-0.1c2.4,0,3.1,0.6,3.1,3c-0.1,37.5-0.1,75,0,112.5c0,2.3-0.5,2.9-2.9,2.9
		c-30.6-0.1-61.1-0.1-91.7,0c-2.1,0-2.8-0.4-2.8-2.7c0.1-28.2,0.1-56.4,0-84.6c0-2.1,0.5-2.8,2.7-2.8c20.3,0.1,40.7,0.1,61,0
		c2.3,0,2.7,0.8,2.7,2.8c0,18.8,0,37.5,0,56.2c0,2.1-0.5,2.8-2.7,2.8c-10-0.1-20-0.1-30.1,0c-2.2,0-2.8-0.6-2.7-2.8
		c0.2-3.4,0.1-6.8,0-10.2c-0.1-1.7,0.5-2.1,2.1-2.1c4.6,0.1,9.3,0,13.9,0.1c1.9,0,2.7-0.3,2.7-2.5c-0.1-9.1-0.1-18.2,0-27.3
		c0-1.7-0.4-2.3-2.2-2.3c-9.5,0.1-19,0.1-28.5,0c-1.9,0-2.2,0.7-2.2,2.4c0,18.3,0.1,36.6,0,54.8c0,2.1,0.7,2.5,2.6,2.5
		c19.2-0.1,38.4-0.1,57.6,0c2.1,0,2.8-0.4,2.8-2.7c-0.1-27.3-0.1-54.5,0-81.8c0-2.1-0.6-2.6-2.6-2.6c-29.3,0.1-58.7,0.1-88,0
		c-2.5,0-2.5,1.1-2.5,3c0,31.8,0,63.6,0.1,95.4c0,2.7-0.5,3.9-3.5,3.7c-3.9-0.2-7.8,0.1-11.8,0.3c-1.8,0.1-2.5-0.3-2.5-2.3
		C5.6,83,5.6,45.2,5.5,7.4c0-2.8,1.6-2.3,3.2-2.3C29.2,5.2,49.5,5.2,69.9,5.2z"/>
	<path class="st1" d="M524.8,54.1c8.1-13.8,16.2-27.6,24.1-41.4c1.2-2.1,2.5-2.8,4.8-2.8c14.4,0.1,28.9,0.1,43.4,0.1
		c0.3,1.4-0.8,2.1-1.4,3c-10.4,15.6-20.8,31.3-31.3,46.8c-1.4,2.1-1.3,3.3,0.2,5.3c12.1,16.1,24,32.3,36,48.5
		c0.6,0.8,1.2,1.6,2.1,2.9c-1.5,0-2.5,0-3.4,0c-14.8,0-29.5,0-44.3,0.1c-2,0-3.1-0.6-4.2-2.3c-8-12.9-16.2-25.6-24.3-38.5
		c-0.5-0.8-1.1-1.7-1.8-2.8c-0.7,1.3-0.5,2.4-0.5,3.4c0,12.3-0.1,24.6,0,36.9c0,2.5-0.4,3.3-3.1,3.3c-11.8-0.2-23.5-0.1-35.3,0
		c-2,0-2.6-0.5-2.6-2.6c0.1-33.8,0.1-67.5,0-101.3c0-2.3,41.1-1.9,41.1,0.3c-0.1,12.6,0,25.2,0,37.8c0,1.1,0,2.2,0,3.3
		C524.3,54,524.6,54.1,524.8,54.1z"/>
	<path class="st1" d="M276.9,116.4c-6.5,0-13-0.1-19.5,0.1c-2.1,0-2.9-0.7-3.3-2.6c-0.6-3-1.7-5.9-2.4-8.9c-0.4-1.5-1.1-2-2.6-1.9
		c-9.1,0.1-18.2,0.1-27.3,0c-1.6,0-2.4,0.5-2.8,2.1c-0.7,3.1-1.7,6.2-2.4,9.3c-0.4,1.5-1,2.1-2.7,2.1c-13.4-0.1-26.8-0.1-40.3,0
		c-3.5,0-1.7-1.9-1.3-3c11.6-29.9,23.2-59.7,34.8-89.6c1.5-3.9,3.1-7.8,4.6-11.8c0.5-1.4,1.1-2.1,2.8-2.1c14.1,0.1,28.3,0.1,42.4,0
		c2.4,0,2.6,1.6,3.1,3c9.8,25.6,19.5,51.2,29.3,76.8c3,8,6,16,9.2,23.9c1,2.4,0.4,2.9-2,2.8C290.1,116.3,283.5,116.4,276.9,116.4z
		 M235.1,42.6c-0.4,2.5-0.6,5.1-1.1,7.6c-1.5,8.6-4.2,16.9-6.7,25.3c-0.6,1.9-0.2,2.3,1.7,2.3c4.3-0.1,8.6-0.1,13,0
		c1.6,0,2-0.5,1.5-2C240.2,64.9,236.6,54.1,235.1,42.6z"/>
	<ellipse class="st0" cx="626.3" cy="101.4" rx="22.7" ry="17.5"/>
	<ellipse class="st0" cx="443.7" cy="101.4" rx="22.7" ry="17.5"/>
	<ellipse class="st0" cx="323.7" cy="101.2" rx="22.7" ry="17.5"/>
</g>
<rect x="363" y="10.1" class="st1" width="41.5" height="106.6"/>
<rect x="483" y="10.1" class="st1" width="41.5" height="106.6"/>
</svg>
