<?xml version="1.0" encoding="utf-8"?>
<!-- Generator: Adobe Illustrator 23.0.5, SVG Export Plug-In . SVG Version: 6.00 Build 0)  -->
<svg version="1.1" id="Слой_1" xmlns="http://www.w3.org/2000/svg" xmlns:xlink="http://www.w3.org/1999/xlink" x="0px" y="0px"
	 viewBox="0 0 1440 900" style="enable-background:new 0 0 1440 900;" xml:space="preserve">
<style type="text/css">
	.st0{fill:none;stroke:#000000;stroke-miterlimit:10;}
	.st1{stroke:#000000;stroke-miterlimit:10;}
	.st2{stroke:#000000;stroke-width:3;stroke-miterlimit:10;}
	.st3{fill:#FFFFFF;stroke:#000000;stroke-miterlimit:10;}
	.st4{stroke:#FFFFFF;stroke-miterlimit:10;}
	.st5{fill:#FFFFFF;}
	.st6{stroke:#000000;stroke-width:2;stroke-miterlimit:10;}
</style>
<g>
	<path d="M427.28,393.89h172.07c0,0,84.18,167.11-8.67,399.83c0,0-27.23,6.19-39.61-6.19c0,0,2.48-247.58-40.85-279.76
		L357.96,801.15v21.04h-77.99l39.61-22.28L427.28,393.89z"/>
	<path class="st0" d="M430.99,395.13h169.59v-8.67c0,0,116.36,7.43,110.17-76.75c0,0,9.9-118.84-183.21-129.98l-49.52,12.38
		c0,0-37.14,34.66-32.18,51.99s12.38,33.42,13.62,34.66s-14.85,30.95-14.85,30.95S417.37,386.46,430.99,395.13z"/>
	<path class="st0" d="M578.07,267.63c0,0,63.13,27.23,51.99,45.8c0,0,4.95,28.47-30.95,45.8c0,0-23.52-43.33-34.66-37.14
		c0,0-13.62-19.81,0-37.14C578.07,267.63,578.07,267.63,578.07,267.63z"/>
	<path class="st0" d="M479.27,193.36c0,0-91.6,95.32-191.87-69.32c0,0,4.95-28.47-61.89-30.95c-66.85-2.48,0,9.9,0,9.9
		s-1.24,40.85,45.8,37.14c0,0-19.81,181.97,173.3,162.16"/>
	<path class="st0" d="M599.11,359.23c0,0,24.25,13.62,5.03,24.76c0,0-40.85,32.18-50.75,0c-9.9-32.18,42.09-22.28,42.09-22.28
		L599.11,359.23z"/>
	<path class="st0" d="M287.4,124.03c0,0,1.39,22.9-16.09,16.09"/>
	<path class="st0" d="M679.65,229.25c0,0,66.85-79.22-23.52-107.7c0,0-48.28-4.95-65.61,0c-17.33,4.95-22.28-53.23-22.28-53.23
		s-21.04-50.75-85.41-33.42c0,0-29.71,16.09-28.47,39.61c0,0-34.66-2.48-29.71,18.57c4.95,21.04,6.19,18.57,29.71,18.57v27.23
		c0,0,0,16.09,35.9,17.33c0,0,3.71,9.9,11.14,27.23"/>
	<path class="st0" d="M461.78,153.74c0,0-42.09,26-12.38,60.66"/>
	<path class="st0" d="M528.71,177.26c0,0-37.14-16.09-40.85-64.37c0,0,16.09-0.65,20.42-20.13c0,0-3.09-17-20.42-15.77V58.43
		c0,0-21.04-4.95-26,14.85l-11.14,2.48"/>
	<path class="st1" d="M524.49,113.05h-98.18c-2.12,0-3.83-1.71-3.83-3.83V77.33c0-2.12,1.71-3.83,3.83-3.83h98.18
		c2.12,0,3.83,1.71,3.83,3.83v31.89C528.32,111.33,526.6,113.05,524.49,113.05z"/>
	<path class="st2" d="M528.32,93.27c0,0,13.32,0.06,42.4-6.79"/>
	<path class="st3" d="M599.81,797.44c0,0-13.95,16.09,1.24,24.76"/>
	<line class="st3" x1="1055.35" y1="849.43" x2="1021.96" y2="849.43"/>
	<path class="st3" d="M899.37,681.08c3.09,22.28,0,40.85,0,40.85"/>
	<path class="st4" d="M719.74,450.83c-21.18,12.38,0,30.33,0,30.33c54.33,22.9,127.64-15.47,127.64-15.47v26
		c-157.21,174.54-215.39,1.24-215.39,1.24c-7.43-118.84,177.02-120.07,177.02-120.07c0,45.8,37.14,7.43,37.14,7.43
		c18.57-11.14,117.6,44.56,117.6,44.56c35.9,44.56,209.2,0,209.2,0v29.71c-68.08,90.37-240.15,85.41-240.15,85.41l7.43,49.52H727.31
		"/>
	<path d="M729.45,463.76c0.27-1.15,0.48-2.39,0.43-3.58c-0.03-0.54-0.32-1.04-0.77-1.36c-0.44-0.31-1.03-0.42-1.62-0.46
		c-0.02-0.06-0.06-0.1-0.08-0.15c0.19-0.22,0.36-0.46,0.48-0.72c0.43-0.91,0.32-1.63-0.1-2.16c0.35-0.44,0.33-0.8-0.1-1.02
		c0.4-1.38-1.36-1.45-2.8-1.45c-1.26,0-3.58,0.38-5.27,1.19l-0.06-1.05c0,0-16.09,13.31,1.55,26.3l-0.16-2.75
		c0.81-0.07,1.62-0.21,2.34-0.41c1.23-0.35,2.55-0.77,3.58-1.53c0.49-0.36,1.4-0.97,1.2-1.71c-0.26-0.96-0.3-1.92-0.22-2.9
		C728.17,467.87,728.97,465.86,729.45,463.76z"/>
	<path class="st3" d="M731.25,589.48h278.52c0,0,132.45-1.24,101.51,170.83c0,0-19.81,63.13-56.94,87.89l53.23,24.76h-102.74
		c0,0,102.74-129.82-28.47-178.18c0,0-38.37-12.46-77.99,25.92c0,0-7.43,131.22-115.12,141.12c-107.7,9.9-183.21-40.85-183.21-40.85
		h-21.04c0,0-16.09,32.18,6.19,51.99c0,0-45.8-9.9-42.09-51.99s18.57-44.56,18.57-44.56l37.14,19.81c0,0,155.97,35.9,158.45-85.41
		C757.25,710.79,708.97,589.48,731.25,589.48z"/>
	<path class="st3" d="M598.8,796.2c0,0-13.38,8.9,1.24,24.76"/>
	<line class="st3" x1="1054.34" y1="848.19" x2="1017.96" y2="848.19"/>
	<path class="st3" d="M898.37,720.69c0,0,3.33-12.22,0-24.68"/>
	<path class="st5" d="M849.55,489.52c0,0,41.78,4.64,40.85-33.42l39.92-4.64v-9.28h-55.7l-2.79-26.15h-9.28l0.93,28.01
		c0,0-8.36,3.71-13.93,22.28V489.52z"/>
	<path class="st3" d="M1170.93,451.45c0,0,44.56-4.64,34.35-31.57l40.85-3.87v-10.06h-52.92l-5.57-32.49h-9.28l0.93,35.28
		c0,0-9.28,3.71-8.36,13C1171.86,431.03,1170.93,451.45,1170.93,451.45z"/>
	<path class="st0" d="M807.15,376.48c0,0,10.52,39.61,37.14,6.19v-6.19c0,0,40.85,8.05,34.66-45.18c0,0,24.14,1.86,24.76-23.52
		c0.62-25.38-25.38-18.57-25.38-18.57l-0.62-6.19c0,0,16.09-10.52,8.05-18.57c0,0-17.95-28.47-63.75-9.28c0,0-13,2.48-22.9,19.81
		c0,0-26.61-4.95-24.76,28.47c0,0,6.19,13.57,10.52,18.85c0,0-1.86,19.52,19.81,17.05c0,0-0.62,9.9,8.05,14.85L807.15,376.48z"/>
	<path d="M815.04,391.84c-0.19-0.21-0.37-0.41-0.56-0.62c-2.01-6.74-7.56-12.26-16.69-12.26c-13.11,0-18.88,11.41-17.3,21.45
		c0.07,5.68,2.4,11.32,7.04,14.71c1.11,1.69,2.53,3.18,4.25,4.38c1.85,2.27,4.32,4.08,7.41,5.1c2.56,1.59,5.73,2.56,9.52,2.56
		C829.74,427.16,831.88,397.76,815.04,391.84z"/>
	<path class="st1" d="M905.25,330.14h-98.18c-2.12,0-3.83-1.71-3.83-3.83v-35.05c0-2.12,1.71-3.83,3.83-3.83h98.18
		c2.12,0,3.83,1.71,3.83,3.83v35.05C909.08,328.43,907.37,330.14,905.25,330.14z"/>
	<path class="st1" d="M877.71,283.02c0,0-20.42,15.55-69.32,13.69"/>
	<path class="st1" d="M804.68,339.35c0,0,11.14-3.02,9.9-14.16"/>
	<path class="st6" d="M774.25,294.55"/>
</g>
</svg>
