<?xml version="1.0" encoding="utf-8"?>
<!-- Generator: Adobe Illustrator 23.0.5, SVG Export Plug-In . SVG Version: 6.00 Build 0)  -->
<svg version="1.1" id="Слой_1" xmlns="http://www.w3.org/2000/svg" xmlns:xlink="http://www.w3.org/1999/xlink" x="0px" y="0px"
	 viewBox="0 0 1440 900" style="enable-background:new 0 0 1440 900;" xml:space="preserve">
<style type="text/css">
	.st0{fill:#FFFFFF;stroke:#000000;stroke-miterlimit:10;}
	.st1{fill:none;stroke:#000000;stroke-miterlimit:10;}
	.st2{stroke:#000000;stroke-miterlimit:10;}
	.st3{fill:#FFFFFF;}
</style>
<g>
	<circle class="st0" cx="524.45" cy="335.99" r="244.36"/>
	<path class="st0" d="M327.1,480.08c0,0,28.04,97.68-59.45,121.82s93.26,45.25,158.25-42.23"/>
	<circle class="st0" cx="900.15" cy="589.88" r="244.36"/>
	<path class="st1" d="M881.6,423.23c0,0,3.35,22.79,36.2,43.58c0,0-22.79,86.48-8.04,95.2c0,0-12.07,68.38-63.02,69.72
		c-50.95,1.34,18.1-77.77,18.1-77.77l8.06-14.75C872.9,539.21,807.19,528.48,881.6,423.23z"/>
	<path class="st1" d="M855.45,566.7c0,0-74.41,38.88-24.8,85.14l17.43-20.11l16.76,23.46c0,0,93.85-56.98,45.59-92.51"/>
	<path class="st2" d="M834.71,648.48l6.7,10.06c0,0-24.8,75.08,0,164.25c0,0,14.75,8.04,37.54,6.7c0,0-21.45-170.95-29.5-170.95
		l8.72-10.06"/>
	<path d="M857.41,644.64c-0.29-0.19-0.63-0.33-1.02-0.39c-0.13-1.16-0.85-2.23-2.16-2.5c-0.09-0.15-0.2-0.28-0.31-0.41
		c0.7-1.74-0.16-4.18-2.61-4.18c-0.18,0-0.35,0.02-0.51,0.05c0.07-0.4,0.1-0.82,0.03-1.22c0.33-1.66-0.6-3.61-2.78-3.61
		c-1.77,0-2.7,1.28-2.83,2.64c-0.26,0.58-0.34,1.25-0.23,1.89c-1.93,0.02-2.87,1.58-2.8,3.09c-0.57,0.12-1.13,0.42-1.52,0.81
		c-0.36,0.36-0.65,0.89-0.79,1.43c-0.3,0.06-0.56,0.16-0.8,0.3c-0.02,0.01-0.04,0.02-0.06,0.04c-0.73,0.43-1.18,1.17-1.32,1.98
		c-1.03,0.26-1.66,1.03-1.92,1.92c-1.97,1.44-1.41,5.38,1.7,5.38c0.85,0,1.5-0.3,1.97-0.76c0.02,0,0.03,0.01,0.05,0.01
		c0.36,0,0.68-0.07,0.97-0.16c0.46,0.68,1.21,1.17,2.3,1.17c1.29,0,2.13-0.68,2.55-1.58c0.1-0.12,0.18-0.25,0.26-0.37
		c0.67,0.93,1.62,1.64,2.79,1.83c0.99,0.16,1.81,0.11,2.8-0.07c0.42-0.08,0.83-0.17,1.25-0.24c0.05,0,0.1-0.01,0.16-0.01
		c1.05-0.02,2.05-0.65,2.58-1.55c0.35,0.15,0.74,0.24,1.2,0.24C859.73,650.35,860.09,645.64,857.41,644.64z"/>
	<path class="st1" d="M827.93,585.8c0,0-56.31,3.02-65.36,72.4l-15.08,118.66"/>
	<path class="st1" d="M812.93,589.88c0,0-71.4,63.3-12.07,153.81l24.13,74.41"/>
	<line class="st1" x1="799.85" y1="743.68" x2="793.82" y2="807.03"/>
	<path class="st1" d="M922.62,580.35c0,0,85.48,1.43,97.54,95.96l10.06,113.97"/>
	<path class="st0" d="M1039.99,790.28c0,0,26.66,67.14,104.52,68.09c0,0-73.68-89.03-39.64-135.04"/>
	<path class="st1" d="M965.78,589.88c0,0-32.18,86.43,8.04,228.22"/>
	<path class="st1" d="M855.12,562.67c0,0-61.34-87.49,29.16-158.88c0,0,76.42-33.18,75.42,79.44c0,0,9.05,42.23,56.31,56.31
		c0,0,133.74,75.47,13.07,164.44"/>
	<path d="M1078.36,624.17c-0.01-0.13-0.03-0.26-0.04-0.39c0.92-4.02,0.34-8.43-1.73-11.95c0.63-4.81-0.8-9.93-4.29-13.28
		c-0.41-4.16-2.34-8.14-5.81-10.6c-0.91-3.54-3.01-6.73-6.29-8.65c-0.52-1.14-1.19-2.21-2-3.18c-1.08-2.79-2.99-5.22-5.68-6.81
		c-1.36-3.02-3.73-5.52-7.06-6.89c-1.48-2.31-3.65-4.18-6.49-5.22c-1.29-1.94-3.09-3.54-5.36-4.6c-1.13-1.43-2.56-2.62-4.28-3.49
		c-0.43-0.6-0.92-1.16-1.45-1.69c-2.15-3.19-5.63-5.49-10.45-5.82c-1.07-0.7-2.2-1.27-3.36-1.7c-2.03-2.22-4.85-3.79-8.49-4.2
		c-2.35-2.35-5.66-3.89-9.97-3.89c-0.07,0-0.13,0.01-0.19,0.01c0,0-0.01,0-0.01,0c-1.76-3.25-4.74-5.81-8.96-6.7
		c-0.55-0.4-1.1-0.79-1.73-1.1c-1.05-1.39-2.41-2.54-4.01-3.43c-1.02-2.42-2.66-4.56-4.91-6.07c-0.88-1.63-2.05-3.1-3.54-4.26
		c-0.57-0.96-1.24-1.87-2.04-2.67c-0.39-0.61-0.81-1.2-1.3-1.75c-0.56-2.27-1.6-4.41-3.13-6.17c-0.42-0.68-0.89-1.34-1.43-1.94
		c-0.35-0.85-0.78-1.67-1.28-2.43c0.01-3.97-1.37-7.93-4.1-10.75c1.31-3.87,1.12-8.29-0.53-12c0.16-1.3,0.15-2.61,0.02-3.91
		c0.6-2.82,0.47-5.82-0.4-8.56c0.51-2.84,0.28-5.83-0.67-8.53c0.56-3.76-0.18-7.72-2.15-10.91c-0.14-1.47-0.49-2.91-1.01-4.28
		c-0.25-2.65-1.15-5.21-2.65-7.37c-0.6-3.74-2.49-7.2-5.6-9.45c-0.44-0.71-0.96-1.37-1.53-1.99c-1.44-3.83-4.38-7.02-8.81-8.3
		c-1.38-1.53-3.12-2.77-5.26-3.53c-2.21-2.3-5.29-3.87-9.31-4.08c-2.07-1.28-4.62-2.05-7.67-2.05c-0.87,0-1.68,0.08-2.47,0.2
		c-4.41-1.83-9.9-1.16-13.96,1.34c-0.23-0.01-0.44-0.03-0.67-0.03c-1.15,0-2.21,0.12-3.22,0.32c-2.81,0.24-5.13,1.18-7.02,2.55
		c-2.89,0.59-4.92,2.36-6.09,4.6c-1.16,0.39-2.27,1.12-2.85,2.23c-0.12,0.23-0.18,0.46-0.26,0.68c-1.61,0.1-2.75,0.86-3.48,1.91
		c-0.18,0.03-0.35,0.06-0.52,0.12c-0.54,0.19-1.11,0.41-1.61,0.7c-0.08,0.05-0.16,0.1-0.24,0.15c-0.4,0.29-0.81,0.59-1.18,0.92
		c-0.29,0.25-0.51,0.58-0.74,0.88c-0.24,0.31-0.48,0.59-0.65,0.95c-0.21,0.44-0.43,0.91-0.58,1.39c-0.02,0.06-0.03,0.12-0.04,0.18
		c-1.65,0.43-2.68,1.65-3.13,3.07c-1.69,0.58-3.13,2.1-3.49,3.86c-0.15,0.13-0.31,0.26-0.45,0.39c-0.92,0.84-1.69,1.86-2.38,2.88
		c-1.06,1.55-1.81,3.29-2.61,4.98c-0.14,0.31-0.29,0.61-0.43,0.92c-0.28,0.18-0.55,0.4-0.79,0.65c-3.28,3.38-5.04,7.64-6.69,11.95
		c-2.45,0.72-3.51,3.19-3.2,5.46c-0.99,0.89-1.46,2.2-1.51,3.52c-0.89,0.8-1.41,1.93-1.54,3.13c-1.83,1.46-2.24,4.24-1.24,6.29
		c-0.91,0.61-1.51,1.53-1.81,2.55c-2.04,1.4-2.53,4.36-1.47,6.52c-0.13,0.43-0.21,0.88-0.16,1.36c0.12,1.34,0.18,2.68,0.21,4.02
		c-1.4,1.25-1.86,3.31-1.41,5.12c-0.86,1.49-0.91,3.44-0.17,5c-1.67,1.83-1.69,4.96-0.09,6.84c-0.93,1.64-0.88,3.82,0.1,5.43
		c-0.32,0.97-0.35,2.04-0.12,3.03c-1.54,2.22-1.11,5.72,1.27,7.21c-0.4,1.67-0.02,3.54,1.13,4.79c-0.26,2.63,1.3,5.48,4.71,5.48
		c4.83,0,5.97-5.71,3.44-8.43c0.06-0.63,0.03-1.28-0.13-1.89c0.51-2.01-0.12-4.36-1.9-5.54c1.07-1.66,1.09-4.01,0.05-5.69
		c0.47-1.47,0.32-3.18-0.48-4.49c1.21-0.57,2.18-1.58,2.41-2.98c0.43-2.56,0.72-5.13,0.88-7.71c1.79-0.92,2.6-2.91,2.46-4.82
		c1.65-1.13,2.31-3.26,1.93-5.18c0.49-0.74,0.75-1.63,0.81-2.53c0.64-1.24,1.25-2.5,1.75-3.82c0.25-0.66,0.44-1.33,0.61-2.02
		c1.11-0.92,1.68-2.34,1.71-3.78c0.2-0.22,0.4-0.44,0.6-0.66c1.17-1.26,2.31-2.52,3.29-3.94c1.85-2.69,2.55-6.34,3.73-9.12
		c1.09-2.55,2.71-5.35,4.41-7.82c2.22-0.64,3.33-2.71,3.31-4.78c0.36-0.62,0.62-1.3,0.71-2.02c1.13-0.55,1.89-1.53,2.27-2.66
		c2.11-0.88,3.03-3.17,2.75-5.29c0.25-0.33,0.48-0.68,0.73-1.01c1.19-1.51,2.43-2.98,3.71-4.41c0.35,0.84,0.78,1.64,1.28,2.4
		c0.17,3.89,1.64,7.71,4.45,10.37c0.75,3.22,2.43,6.19,5.11,8.21c1,2.1,2.48,3.95,4.45,5.32c0.85,1.82,2.05,3.47,3.61,4.78
		c1.62,3.07,4.32,5.53,8.09,6.6c1.54,1.89,3.61,3.38,6.22,4.19c0.96,1.15,2.13,2.04,3.42,2.69c-1.37,2.47-2.09,5.31-2.02,8.17
		c-1.36,2.7-1.87,5.83-1.59,8.88c-1.17,2.25-1.75,4.81-1.77,7.38c-2.14,3.42-2.81,7.75-2.03,11.76c-1.85,2.97-2.6,6.62-2.26,10.15
		c-1.31,2.9-1.73,6.24-1.22,9.42c-0.82,2.43-1.07,5.07-0.72,7.63c-0.97,2.45-1.34,5.17-1.07,7.82c-0.62,2.85-0.53,5.88,0.34,8.65
		c-1.36,6.11,0.7,13.12,6.25,16.47c1.29,1.72,3.02,3.12,5.13,4.06c0.47,0.66,1,1.28,1.58,1.85c0.57,1.59,1.4,3.08,2.48,4.37
		c0.29,1.19,0.81,2.31,1.5,3.3c0.37,2.09,1.92,3.94,4.67,3.94c0.55,0,1.03-0.1,1.48-0.23c0.49,0.07,1,0.12,1.54,0.12
		c0.77,0,1.48-0.08,2.16-0.21c2.15,1.46,4.86,2.37,8.15,2.37c0.18,0,0.34-0.02,0.52-0.03c0.79,0.12,1.62,0.19,2.5,0.19
		c0.17,0,0.34-0.01,0.51-0.02c2.13,1.56,4.87,2.53,8.19,2.59c2.37,2.59,5.83,4.3,10.4,4.3c0.13,0,0.25-0.02,0.38-0.02
		c0.93,0.67,2,1.19,3.16,1.61c1.63,2.35,4.02,4.17,7.12,5.07c1.13,0.77,2.42,1.38,3.86,1.79c1.66,2.84,4.3,5.08,7.91,6.07
		c1.11,1.49,2.57,2.71,4.3,3.64c1.05,3.33,3.17,6.26,6.38,8.02c0.68,1.76,1.68,3.37,3,4.72c0.72,1.86,1.8,3.56,3.23,4.96
		c0.99,3.08,2.91,5.81,5.76,7.58c0.16,0.37,0.33,0.72,0.51,1.08c0.23,4.2,2.01,8.29,5.34,10.92c0.1,0.72,0.25,1.43,0.44,2.13
		c0.32,1.74,0.92,3.42,1.79,4.93c0.1,1.73,0.47,3.43,1.09,5.02c-1.13,3.71-0.84,7.82,1.33,11.5c0.13,0.22,0.23,0.46,0.35,0.68
		c0.08,0.27,0.13,0.54,0.2,0.81c0,0.03,0.01,0.06,0.01,0.08c0.05,2.33,0.69,4.63,1.75,6.71c-0.61,3.4-0.16,7.01,1.31,10.09
		c-0.22,1.67-0.02,3.38,0.51,4.96c-0.08,0.1-0.16,0.21-0.24,0.31c-0.45,0.77-0.67,1.6-0.67,2.48c-0.04,0.99,0.12,1.97,0.27,2.95
		c0.03,0.2,0.1,0.38,0.15,0.58c-1.13,2.9,0.32,6.92,4.37,6.92c2.85,0,4.4-1.99,4.69-4.17c0.96-0.4,1.68-1.08,2.15-1.92
		c0.65-0.35,1.17-0.84,1.56-1.43c2.06-0.71,3.64-2.03,4.65-3.72c1.99-0.63,3.67-1.65,5.03-2.95c1.59-1.3,2.84-2.91,3.71-4.74
		c3.1-1.23,5.35-3.48,6.78-6.18c2.21-1.57,3.73-3.79,4.69-6.25c3.15-1.96,5.14-5.12,6.01-8.6c0.2-0.17,0.35-0.38,0.53-0.56
		c3.44-2.22,5.5-5.87,6.15-9.81c2.92-2.95,4.34-7.17,4.21-11.35c0.14-0.69,0.23-1.39,0.29-2.09c0.84-1.87,1.3-3.91,1.39-5.98
		C1079.77,632.14,1079.76,627.87,1078.36,624.17z"/>
	<path d="M866.89,536.89c-0.5,0-0.95,0.07-1.37,0.19c-0.72-1.4-2.1-2.45-4.16-2.45c-0.12,0-0.22,0.03-0.34,0.03
		c-0.6-1.23-1.71-2.18-3.33-2.44c-0.5-0.92-1.31-1.65-2.39-2.04c-0.03-2.43-1.6-4.84-4.73-4.85c-0.6-1.6-1.1-3.23-1.39-4.92
		c-0.1-0.61-0.47-1.24-0.93-1.78c0.84-2.63-0.35-5.95-3.56-6.51c1.65-1.51,1.98-4.18,1-6.16c0.72-1.12,0.95-2.55,0.71-3.87
		c0.72-1.37,0.77-3.08,0.2-4.53c0.3-1.31,0.07-2.72-0.59-3.87c1.3-1.06,1.87-2.8,1.71-4.47c2.82-2.61,1.77-8.64-3.2-8.64
		c-2.33,0-3.8,1.33-4.41,3.02c-1.87,1.23-2.45,3.72-1.82,5.79c-0.07,1.08,0.15,2.18,0.69,3.1c-1.66,1.39-2.12,3.89-1.32,5.88
		c-0.16,0.74-0.19,1.51-0.05,2.26c-0.76,1.49-0.79,3.38-0.04,4.88c-1.7,2.66-0.72,7.04,2.97,7.7c-1.77,1.67-1.98,4.71-0.61,6.7
		c-0.04,0.11-0.1,0.23-0.14,0.34c-1.79,1.98-1.67,5.48,0.36,7.26c-0.3,1.7,0.17,3.56,1.46,4.73c-0.07,1.37,0.31,2.77,1.25,3.78
		c0.09,1.1,0.48,2.17,1.22,2.98c0.04,1.08,0.38,2.14,1.03,2.99c0.05,1.21,0.47,2.4,1.29,3.29c0.2,1.17,0.77,2.25,1.7,2.99
		c0.02,0.1,0.02,0.19,0.04,0.29c0.16,0.89,0.53,1.79,1.03,2.54c0.36,0.54,0.77,1.1,1.27,1.53c0,0,0,0,0.01,0
		c0.01,0.1,0.02,0.21,0.04,0.3c0.08,0.6,0.16,1.2,0.24,1.8c0.19,0.69,0.55,1.28,0.99,1.82c-0.03,0.2-0.06,0.4-0.06,0.58
		c0,1.21,0.54,2.65,1.44,3.48c0.44,0.41,0.96,0.76,1.51,1.01c-0.45,1.16,0.12,2.77,1.74,2.77c1.57,0,2.16-1.5,1.79-2.65
		c0.68-0.24,1.31-0.61,1.93-1.13c1.66-1.4,2.26-3.41,2.97-5.36c0.17-0.35,0.36-0.68,0.59-1c0.87-1.05,1.7-2.09,2.28-3.32
		c1.38-0.97,2.03-2.64,1.98-4.29c0,0,0,0,0,0C873.2,545.67,872.89,536.89,866.89,536.89z"/>
	<path class="st0" d="M514.73,195.8c0,0,52.29,74.41,71.4,31.17s19.11-43.24,19.11-43.24s8.04,69.39,100.56-63.35
		c0,0-20.11-15.08-32.18-27.15l-31.17,29.16l-6.03-6.03c0,0,15.08-34.19-20.11-16.09c0,0-14.08,20.11,6.03,21.12
		c0,0-23.13,21.12-36.2,16.09L514.73,195.8z"/>
	<path class="st1" d="M516.74,197.81c0,0-223.24-80.45-125.2,361.51c0,0,5.24,18.44,7.75,26.48"/>
	<path class="st1" d="M636.49,493.29c0,0-227.26,22.12-255.42-39.22c0,0-38.21-251.4,63.35-244.36c0,0,76.42-22.12,14.08,213.18
		c0,0,84.47,19.83,172.96,18.97c0,0,33.18-37.07,41.23-59.19c0,0,10.06-1.01-7.04,37.21c0,0,47.26,10.06-7.04,39.22
		C658.61,459.1,645.54,463.12,636.49,493.29z"/>
	<path class="st1" d="M636.49,493.29c0,0-16.8-19.01-5.03-51.42"/>
	<path class="st1" d="M566.85,575.75c0,0,0-65.75,19.11-78.63"/>
	<path class="st1" d="M607.79,441.86c65.36-138.91,0-208.02,0-208.02l-16.69-18.11"/>
	<path class="st1" d="M593.04,218.09c0,0,19.11-12.97,108.6,111.67l-16.09-96.59c0,0,15.08,6.23,45.25-8.45
		c0,0,67.37,164.32,25.14,189.46c0,0-27.31,18.52-74.49-21.41"/>
	<path class="st1" d="M672.69,382.67c0,0-15.57-14.77-37.64-29.51"/>
	<path class="st1" d="M584.16,138.44c0,0,42.23-109.61,80.45-85.48c0,0,73.41,28.16,45.25,70.39l-12.07,15.08"/>
	<path class="st1" d="M657.48,213.23c1.01,8.17,33.18,9.53,33.18,9.53v11.47"/>
	<path class="st1" d="M719.54,226.7c0,0-3.74-66.97-13.8-58.93"/>
	<polyline class="st2" points="657.48,180.27 664.27,209.16 705.79,172.21 698.46,130.72 	"/>
	<path class="st3" d="M712.94,180.65c-0.01-0.03,0-0.06-0.01-0.09c0-0.32-0.11-0.62-0.27-0.89c0.02-0.32-0.03-0.64-0.15-0.93
		c-0.05-0.59-0.32-1.14-0.83-1.47c-0.02-0.04-0.03-0.09-0.06-0.13c-0.03-0.25-0.1-0.5-0.21-0.72c0.05-0.83-0.4-1.63-1.26-1.92
		c0.72-0.65,0.83-1.84,0.32-2.64c0.25-1.12-0.34-2.45-1.82-2.45c-1.78,0-2.29,1.93-1.56,3.09c-0.04,0.16-0.08,0.32-0.09,0.48
		c-0.03,0.03-0.06,0.05-0.1,0.07c-0.15,0.05-0.28,0.1-0.4,0.18c-1.75,0.61-1.64,3.49,0.41,3.71c0.26,0.25,0.56,0.45,1,0.5
		c0.01,0.42,0.14,0.82,0.37,1.15c0.03,0.39,0.18,0.76,0.41,1.06c-0.1,0.55,0.02,1.14,0.33,1.59c0.01,0.34,0.12,0.66,0.28,0.95
		c-0.11,1.06,0.49,2.21,1.86,2.21c1.08,0,1.68-0.71,1.84-1.53C713.39,182.2,713.37,181.3,712.94,180.65z"/>
	<path class="st1" d="M631.88,440.87"/>
	<path d="M714.67,98.12c0.32-2.84-0.42-5.83-2.24-7.99c-0.63-1.92-1.79-3.63-3.51-4.8c-0.61-1.27-1.5-2.4-2.64-3.28
		c-0.42-0.81-0.95-1.56-1.6-2.22c-0.95-3.49-3.51-6.59-7.75-7.42c-0.53-0.26-1.07-0.51-1.61-0.76c-0.87-1.23-2.04-2.26-3.52-2.93
		c-0.15-0.15-0.32-0.27-0.48-0.41c-1.3-2.08-3.41-3.65-6.33-4.07c-0.98-0.91-2.18-1.64-3.64-2.03c-1.26-2.12-3.32-3.74-6.22-4.23
		c-1.57-2.17-4.1-3.68-7.6-3.68c-0.31,0-0.61,0.02-0.91,0.04c-1.12-0.75-2.45-1.28-4.03-1.47c-0.9-0.83-1.99-1.5-3.29-1.9
		c-1.33-0.75-2.94-1.2-4.85-1.2c-0.73,0-1.41,0.07-2.05,0.19c-0.62-0.12-1.27-0.19-1.97-0.19c-2.81,0-5,0.97-6.56,2.48
		c-1.31,0.4-2.45,1.03-3.36,1.86c-2.24,0.57-3.94,1.86-5.09,3.53c-2.03,0.72-3.56,2.06-4.56,3.73c-3.54,0.84-5.74,3.45-6.6,6.51
		c-1.58,1.03-2.73,2.52-3.41,4.22c-0.6,0.48-1.13,1.02-1.58,1.63c-1.7,1.29-2.83,3.12-3.36,5.14c-1.56,1.23-2.59,2.95-3.13,4.83
		c-0.43,0.35-0.81,0.77-1.1,1.3c-1.58,2.91-3.16,5.82-4.75,8.74c-1.49,0.55-2.41,1.78-2.78,3.19c-0.44,0.77-0.67,1.66-0.69,2.56
		c-0.47,0.63-0.79,1.36-0.92,2.14c-2.46,4.3-5,8.56-7.76,12.67c-0.3,0.45-0.47,0.95-0.57,1.47c-0.83,0.65-1.54,1.48-2.09,2.36
		c-0.68,1.06-1.12,2.33-1.41,3.55c-0.19,0.78-0.36,1.56-0.61,2.32c-0.06,0.1-0.1,0.2-0.16,0.3c-0.7,1.08-0.83,2.46-0.5,3.72
		c-0.01,0.01-0.03,0.02-0.05,0.04c-0.81,0.81-1.41,2.11-1.43,3.29c-0.04,0-0.08-0.01-0.12-0.01c-3.73,0-3.8,5.68-0.19,5.89
		c0.39,0.29,0.9,0.45,1.49,0.49c0.44,0.33,1.02,0.53,1.72,0.53c0.52,0,0.95-0.13,1.32-0.32c0.21,0.05,0.44,0.07,0.69,0.07
		c1.03,0,1.77-0.44,2.24-1.07c1.23-0.05,2.2-0.48,2.93-1.14c0.33-0.09,0.66-0.17,0.98-0.28c1.31-0.46,2.52-1.07,3.65-1.83
		c0,0,0,0,0,0c1.6,0,2.79-0.64,3.58-1.58c0.23,0.03,0.45,0.07,0.7,0.07c2.56,0,4.07-1.62,4.56-3.54c0.07,0,0.14,0.02,0.21,0.02
		c2.08,0,3.47-1.06,4.18-2.49c0.92-0.04,1.6-0.44,2.05-1.01c0.72-0.07,1.18-0.48,1.44-0.99c2.39-0.14,2.37-3.91-0.13-3.91
		c-0.73,0-1.23,0.34-1.54,0.81c-0.47-0.47-1.12-0.79-1.98-0.79c-0.19,0-0.36,0.02-0.52,0.05c-0.11-0.13-0.22-0.25-0.35-0.37
		c-0.33-1.82-1.55-3.43-3.68-3.82c1.01-1.71,0.98-4.05-0.15-5.7c1.08-0.94,1.63-2.37,1.63-3.81c1.65-0.97,2.39-2.88,2.25-4.72
		c0.47-0.75,0.73-1.63,0.77-2.53c0.33,0.06,0.67,0.11,1.05,0.11c1.88,0,3.18-0.88,3.94-2.09c0.27,0.04,0.54,0.08,0.83,0.08
		c1.45,0,2.55-0.53,3.33-1.32c0.9-0.29,1.71-0.69,2.42-1.19c0.74-0.12,1.43-0.31,2.07-0.56c0.63,0.12,1.27,0.2,1.98,0.2
		c0.97,0,1.86-0.13,2.68-0.34c0.09,0.02,0.16,0.06,0.25,0.08c0.96,0.63,2.07,1.1,3.36,1.34c0.38,0.66,0.8,1.3,1.34,1.84
		c0.32,0.66,0.74,1.26,1.21,1.83c0,0.86,0.1,1.72,0.3,2.56c-0.05,0.72,0,1.44,0.11,2.15c-0.17,0.69-0.21,1.41-0.11,2.11
		c-1.45,1.33-1.89,3.53-1.31,5.4c-2.18,1.5-2.59,4.8-1.2,6.97c0.6,1.71,2.08,3.07,4.44,3.07c2.61,0,4.13-1.67,4.59-3.63
		c0.66-0.48,1.1-1.16,1.41-1.88c0.11-0.09,0.18-0.21,0.27-0.31c2.36-0.21,3.75-1.85,4.13-3.75c2.59-0.73,4.44-2.42,5.51-4.55
		c0.94-0.54,1.7-1.26,2.36-2.06c1.57-1.16,2.65-2.79,3.25-4.6c0.55-0.23,1.05-0.52,1.52-0.84c2.93-0.85,4.86-2.97,5.83-5.51
		c1.2-0.56,2.19-1.36,2.97-2.32c0.9,2.07,2.53,3.77,4.8,4.7c0.86,2.36,2.56,4.36,5.1,5.36c0.85,0.95,1.94,1.72,3.23,2.23
		c0.88,1.33,2.1,2.44,3.67,3.15c0.04,0.03,0.09,0.05,0.13,0.08c1.1,2.41,3.17,4.33,6.17,5c1.08,2.55,3.2,4.6,6.33,5.29
		c0.31,1.33,1.12,2.52,2.41,3.15c-0.31,0.37-0.45,0.85-0.45,1.34c-0.63,0.3-0.95,0.93-1,1.59c-1.15,0.06-1.75,0.95-1.78,1.87
		c-0.87,0.29-1.3,1.13-1.25,1.97c-0.28,0.21-0.49,0.49-0.61,0.81c-0.23-0.1-0.48-0.16-0.78-0.16c-1.41,0-2.01,1.22-1.85,2.3
		c-0.07,0.39-0.05,0.8,0.08,1.17c-0.42,1.16,0.16,2.72,1.77,2.72c1.6,0,2.19-1.57,1.77-2.72c0.08-0.22,0.11-0.44,0.11-0.67
		c0.2,0.06,0.39,0.13,0.63,0.13c1.34,0,1.95-1.1,1.87-2.14c0.47-0.35,0.72-0.92,0.75-1.5c0.39-0.13,0.67-0.38,0.88-0.68
		c0.09,0.01,0.16,0.05,0.26,0.05c1.49,0,2.08-1.35,1.82-2.47c0.02-0.1,0.04-0.2,0.05-0.31c1.69-0.08,2.16-1.96,1.44-3.08
		c2.25-0.71,3.31-2.91,3.16-5.05c0.24-0.5,0.41-1.04,0.49-1.59c1.79-2.38,2.4-5.59,1.8-8.54
		C716.07,103.54,715.87,100.57,714.67,98.12z"/>
	<path d="M634.2,491.5c-0.06-0.42-0.22-0.83-0.52-1.14c-0.12-0.61-0.48-1.16-1.11-1.41c-0.01-1.21-0.4-2.41-1.18-3.32
		c-0.27-0.48-0.65-0.89-1.09-1.26c0.03-1.13-0.29-2.25-0.93-3.17c-0.13-0.56-0.33-1.11-0.64-1.6c0.03-2.22-0.54-4.45-1.79-6.24
		c0.07-2.21-0.16-4.43-0.74-6.56c0.31-1.53,0.51-3.08,0.5-4.64c0.01-0.43-0.03-0.85-0.04-1.28c1.23-2.17,1.6-4.81,1.16-7.29
		c0.05-0.17,0.11-0.35,0.11-0.54c0.01-0.42,0.02-0.83,0.05-1.25c0.02-0.19,0.03-0.39,0.05-0.58c0.01-0.06,0.01-0.12,0.02-0.18
		c0-0.02,0.01-0.04,0.02-0.12c0-0.01,0-0.02,0.01-0.02c0.47-0.83,0.69-1.79,0.67-2.76c0.06-0.2,0.12-0.4,0.2-0.6
		c0.08-0.21,0.16-0.41,0.24-0.62c0.02-0.05,0.02-0.05,0.02-0.07c0.01-0.02,0.01-0.02,0.04-0.08c0.35-0.76,0.73-1.49,1.17-2.2
		c0.54-0.88,0.22-2.21-0.71-2.69c-0.78-0.41-1.66-0.29-2.29,0.26c-0.2,0.08-0.37,0.18-0.53,0.31c-0.76-0.67-1.78-1.12-3.1-1.12
		c-0.65,0-1.22,0.13-1.74,0.31c-0.96,0.13-1.75,0.5-2.36,1.03c-0.38-0.07-0.75-0.16-1.16-0.19c-0.78-0.19-1.62-0.3-2.54-0.3
		c-1.05,0-2,0.15-2.87,0.39c-1.66-0.44-3.46-0.68-5.42-0.68c-1.18,0-2.28,0.11-3.35,0.27c-2.12-0.8-4.51-1.28-7.21-1.28
		c-2.06,0-3.93,0.28-5.65,0.76c-2.11-0.79-4.48-1.26-7.17-1.26c-1.38,0-2.66,0.14-3.89,0.36c-1.23-0.22-2.52-0.36-3.91-0.36
		c-0.96,0-1.87,0.07-2.76,0.18c-1.89-0.6-3.98-0.94-6.29-0.94c-1.61,0-3.11,0.16-4.52,0.46c-2.82-1.84-6.32-2.97-10.57-2.97
		c-0.87,0-1.71,0.06-2.52,0.15c-1.27-0.24-2.59-0.4-4.02-0.4c-0.78,0-1.54,0.04-2.28,0.11c-2.19-0.87-4.7-1.37-7.52-1.37
		c-0.41,0-0.79,0.04-1.19,0.06c-1.77-0.51-3.71-0.81-5.85-0.81c-0.9,0-1.75,0.06-2.59,0.16c-0.86-0.1-1.76-0.16-2.69-0.16
		c-0.11,0-0.21,0.01-0.31,0.02c-1.94-0.64-4.08-1.02-6.47-1.02c-0.27,0-0.51,0.03-0.78,0.04c-1.75-0.5-3.66-0.79-5.76-0.79
		c-0.14,0-0.26,0.02-0.39,0.02c-1.79-0.66-3.76-1.11-5.95-1.22c-2.3-0.99-4.95-1.57-7.98-1.57c-0.21,0-0.4,0.02-0.6,0.03
		c-2.13-1.07-4.57-1.77-7.37-1.96c-2.09-0.8-4.44-1.29-7.09-1.32c-1.39-0.46-2.91-0.78-4.54-0.92c-2.32-1.01-4.99-1.61-8.05-1.61
		c-0.05,0-0.1,0.01-0.15,0.01c-1.56-0.43-3.25-0.69-5.08-0.73c-1.33-0.56-2.76-0.99-4.33-1.24c0.37-1.32,0.63-2.68,0.76-4.06
		c0.53-2.14,0.73-4.37,0.62-6.58c0.77-1.76,1.31-3.63,1.57-5.55c1.52-3.04,2.27-6.49,2.23-9.93c2.21-3.65,3.22-8.03,2.98-12.35
		c0.05-0.31,0.11-0.61,0.14-0.92c2.52-3.6,3.74-8.07,3.66-12.52c0.85-2.4,1.28-4.96,1.27-7.53c1.34-3.11,1.91-6.58,1.71-10
		c0.58-1.85,0.94-3.79,1.02-5.75c0.53-1.68,0.86-3.44,0.98-5.21c1.13-3.12,1.52-6.53,1.19-9.85c0.63-1.89,0.99-3.88,1.09-5.89
		c0.97-2.44,1.49-5.08,1.54-7.74c0.73-2.78,0.94-5.72,0.57-8.58c0.09-0.43,0.18-0.85,0.24-1.28c0.67-2.59,0.86-5.32,0.58-8
		c0.59-2.5,0.77-5.11,0.49-7.68c0.3-1.25,0.51-2.54,0.59-3.83c0.69-3.03,0.73-6.21,0.15-9.26c1.3-4.43,1.21-9.33-0.33-13.68
		c0.5-3.51,0.18-7.16-0.98-10.49c0.68-3.39,0.6-6.96-0.29-10.29c0.05-4.76-1.39-9.52-4.3-13.2c-0.27-0.77-0.58-1.52-0.95-2.25
		c-0.59-4.24-2.39-8.27-5.39-11.3c-2.95-5.35-8.42-9.26-16.42-9.26c-1.07,0-2.09,0.09-3.06,0.23c-1.94-0.63-4.1-0.98-6.49-0.98
		c-2.06,0-3.93,0.28-5.65,0.76c-2.96,0.02-5.56,0.58-7.82,1.54c-0.21-0.01-0.39-0.04-0.6-0.04c-5.48,0-9.76,1.85-12.87,4.74
		c-1.19,0.42-2.36,0.91-3.49,1.56c-1.33,1.03-2.66,2.05-3.99,3.08c-0.99,1-1.82,2.09-2.57,3.23c-1.96,1.38-3.52,3.13-4.75,5.1
		c-2.86,2.16-4.87,5.12-6.07,8.42c-2.04,2.33-3.42,5.16-4.17,8.18c-2.04,2.74-3.29,6.04-3.76,9.46c-0.11,0.41-0.19,0.83-0.27,1.25
		c-1.34,2.37-2.16,5.03-2.51,7.76c-1.19,2.4-1.88,5.04-2.11,7.74c-1.98,3.57-2.82,7.78-2.56,11.9c-0.51,1.59-0.82,3.25-0.95,4.92
		c-0.04,0.11-0.07,0.23-0.11,0.34c-0.28,0.61-0.54,1.23-0.77,1.86c-4.73,12.81-4.15,26.73-4.59,40.26
		c-0.22,6.78-0.15,13.57,0.39,20.3c-0.36,2.14-0.4,4.34-0.14,6.49c-0.17,1.57-0.19,3.16-0.04,4.74c-0.68,3.66-0.39,7.5,0.76,11.02
		c-0.13,1.25-0.16,2.5-0.09,3.75c-0.09,1.74,0.04,3.49,0.35,5.2c-0.22,1.98-0.15,3.98,0.15,5.94c-0.12,2.03,0.04,4.08,0.47,6.06
		c-0.04,1.61,0.09,3.23,0.4,4.81c-0.02,2.1-0.05,4.19-0.07,6.29c-0.01,1.33,0.13,2.65,0.41,3.95c-0.48,3.22-0.26,6.56,0.65,9.66
		c-0.31,2.82-0.08,5.7,0.67,8.42c-0.24,3.35,0.27,6.75,1.51,9.83c-0.17,2.82,0.17,5.68,1.06,8.35c-0.57,7.2,2.26,14.71,8.52,18.66
		c2.43,4.14,6.43,7.32,11.96,8.41c2.7,3.29,6.61,5.65,11.73,6.28c2.56,1.66,5.71,2.71,9.43,2.9c3.72,3.02,8.49,4.14,13.23,3.75
		c2.24,1.5,4.93,2.54,8.09,2.92c2.36,1.06,5.09,1.68,8.24,1.68c0.89,0,1.73-0.06,2.56-0.15c1.05,0.19,2.14,0.34,3.3,0.37
		c2.85,1.89,6.41,3.05,10.73,3.05c0.77,0,1.51-0.04,2.24-0.11c1.83,0.55,3.84,0.86,6.06,0.86c1.04,0,2.02-0.09,2.98-0.22
		c2.38,1.09,5.15,1.72,8.33,1.72c0.77,0,1.51-0.04,2.23-0.11c1.83,0.55,3.85,0.86,6.07,0.86c1.75,0,3.37-0.21,4.89-0.56
		c1.52,0.36,3.15,0.56,4.92,0.56c2.09,0,3.98-0.29,5.73-0.78c1.49,0.34,3.1,0.53,4.83,0.53c1.18,0,2.29-0.11,3.36-0.28
		c0.22,0.01,0.43,0.02,0.66,0.02c0.87,0,1.7-0.06,2.5-0.14c1.62,0.42,3.38,0.65,5.29,0.65c1.89,0,3.63-0.24,5.24-0.65
		c1.63,0.42,3.4,0.65,5.32,0.65c1.29,0,2.5-0.12,3.64-0.32c1.79,0.52,3.75,0.83,5.91,0.83c1.69,0,3.25-0.19,4.71-0.51
		c1.07-0.01,2.08-0.11,3.06-0.25c1.05,0.16,2.14,0.26,3.29,0.26c1.19,0,2.31-0.11,3.38-0.28c1.08,0.17,2.21,0.28,3.4,0.28
		c1.67,0,3.21-0.18,4.66-0.5c1.72,0.48,3.59,0.75,5.65,0.75c2.16,0,4.12-0.31,5.92-0.83c0.53,0.04,1.07,0.07,1.63,0.07
		c1.7,0,3.25-0.23,4.72-0.57c0.44,0.02,0.86,0.06,1.31,0.06c1.22,0,2.36-0.12,3.47-0.29c0.27,0.01,0.53,0.04,0.81,0.04
		c0.99,0,1.93-0.08,2.85-0.2c1.32,0.26,2.69,0.45,4.19,0.45c2.43,0,4.62-0.38,6.59-1.03c1.38-0.03,2.66-0.2,3.89-0.46
		c1.23,0.6,2.68,0.95,4.36,0.95c0.89,0,1.72-0.11,2.48-0.29c0.26,0.02,0.51,0.04,0.78,0.04c2.16,0,3.92-0.6,5.33-1.55
		c0.68,0.39,1.48,0.65,2.46,0.65c1.22,0,2.19-0.39,2.94-0.98c0.16,0.82,0.75,1.55,1.83,1.55C634.33,494.5,634.85,492.66,634.2,491.5
		z"/>
	<path d="M769.15,373.83c1.24-5.21,0.58-10.92-1.96-15.57c0.93-4.07,0.66-8.43-0.72-12.34c0.14-3.31-0.47-6.63-1.77-9.62
		c0.17-3.42-0.44-6.86-1.81-9.95c0.4-4.56-0.58-9.24-2.92-13.1c-0.37-1.06-0.86-2.06-1.41-3.04c0.6-5.57-0.91-11.36-4.43-15.63
		c0.94-1.01,0.59-3.01-1.02-3.29c-0.14-2.34-0.64-4.65-1.51-6.81c-0.26-3.56-1.36-7.03-3.28-9.98c-0.61-2.87-1.81-5.37-3.16-7.85
		c-0.22-0.91-0.58-1.82-1.04-2.72c0.04-4.47-1.24-8.93-3.81-12.5c-0.19-0.41-0.41-0.81-0.64-1.21c-0.11-0.87-0.27-1.74-0.48-2.59
		c-0.47-4.16-2.09-8.15-4.86-11.24c-0.22-0.97-0.58-1.89-1.06-2.75c0.14-0.72,0.12-1.46-0.02-2.17c0.58-2.78-0.95-6.07-4.62-6.07
		c-2.22,0-3.65,1.22-4.31,2.79c-0.28,0.28-0.53,0.59-0.73,0.93c-1.46,0.2-2.72,0.69-3.79,1.39c-2.99,0.07-5.62,0.68-7.89,1.72
		c-1.75,0.31-3.48,0.84-5.14,1.61c-1.37,0.1-2.65,0.35-3.85,0.69c-0.96-0.31-2.02-0.48-3.2-0.48c-1.59,0-2.99,0.31-4.18,0.86
		c-0.78,0.1-1.48,0.3-2.15,0.55c-0.63-0.31-1.36-0.5-2.22-0.5c-0.24,0-0.46,0.04-0.68,0.07c-0.3-0.51-0.81-0.88-1.58-0.88
		c-0.17,0-0.29,0.06-0.43,0.09c-0.28-0.2-0.63-0.34-1.07-0.34c-2.33,0-2.49,3.29-0.54,3.83c-0.76,1.77-0.53,4.01,0.7,5.49
		c-0.37,2.83,0.32,5.82,2.09,8.01c-0.24,2.47-0.1,4.99,0.46,7.4c0.05,0.61,0.12,1.22,0.21,1.83c1.05,7.12,2.47,14.14,4.21,21.09
		c-0.03,2.1,0.23,4.2,0.77,6.21c-0.05,2.61,0.38,5.22,1.23,7.66c0.02,2.35,0.43,4.67,1.18,6.88c-0.51,4.24,0.18,8.65,2.07,12.42
		c0.15,0.57,0.34,1.13,0.55,1.69c-0.13,3.13,0.39,6.29,1.55,9.17c0.03,0.22,0.03,0.44,0.07,0.65c-0.32,1.73-0.44,3.5-0.36,5.26
		c-0.43-0.75-0.94-1.45-1.47-2.12c-0.75-1.92-1.78-3.71-3.09-5.29c-1.23-3.39-3.31-6.43-6.28-8.62c-0.81-1.56-1.82-3.02-3.04-4.3
		c-1.39-4.28-4.12-8.06-8.22-10.37c-1.33-4.23-3.97-7.99-7.92-10.36c-1.26-2.41-3.02-4.52-5.29-6.15c-0.56-2.95-2.3-5.63-5.23-6.92
		c-0.57-1.58-1.51-3.01-2.83-4.09c-0.75-1.42-1.86-2.65-3.31-3.5c-0.53-1.34-1.34-2.57-2.43-3.54c-0.83-2.27-2.44-4.21-4.83-5.24
		c-0.64-3.11-2.6-5.89-5.89-7.03c-0.65-1.16-1.57-2.16-2.71-2.93c-0.23-1.96-1.47-3.76-3.74-4.16c-0.57-1.22-1.61-2.19-3.15-2.5
		c-0.46-1.96-1.99-3.63-4.6-3.63c0,0-0.01,0-0.01,0c-1.7-2.62-3.8-5.02-6.25-6.94c-0.88-0.69-1.71-1.19-2.75-1.36
		c-0.25-0.95-0.74-1.82-1.5-2.46c-0.48-1.92-1.98-3.55-4.54-3.56c-0.22-0.73-0.81-1.32-1.8-1.32c-0.3,0-0.55,0.07-0.78,0.16
		c-0.25-0.64-0.81-1.14-1.69-1.16c0.29-1.13-0.3-2.52-1.81-2.52c-0.77,0-1.27,0.38-1.58,0.88c-2.22-1.98-4.84-3.49-7.77-4.36
		c-0.99-0.29-2.19,0.35-2.42,1.38c-0.24,1.06,0.32,2.11,1.38,2.42c0.61,0.18,1.21,0.39,1.8,0.64c0.09,0.04,0.23,0.1,0.25,0.11
		c0.16,0.08,0.32,0.15,0.48,0.23c0.27,0.13,0.53,0.27,0.79,0.42c0.11,0.06,0.2,0.13,0.31,0.19c-0.47,1.16,0.1,2.78,1.73,2.78
		c0.24,0,0.45-0.06,0.64-0.13c-0.06,0.85,0.37,1.71,1.26,2c-0.08,1.04,0.53,2.14,1.87,2.14c0.01,0,0.02-0.01,0.03-0.01
		c0.24,0.14,0.54,0.23,0.89,0.24c-0.15,1.08,0.45,2.27,1.85,2.27c0.25,0.93,0.74,1.79,1.48,2.41c0.41,1.6,1.54,2.99,3.41,3.4
		c0.09,0.52,0.26,1.02,0.5,1.49c-0.18,1.85,0.5,3.78,2.13,4.77c0.37,1.35,1.25,2.52,2.64,3.09c-0.41,2.36,0.69,5,3.29,5.7
		c0.16,0.95,0.55,1.86,1.17,2.58c0.07,1.3,0.57,2.58,1.53,3.47c0.11,2.63,1.1,5.21,3.01,7c-0.14,2.75,0.7,5.55,2.55,7.56
		c-0.12,2.33,0.43,4.7,1.74,6.59c0.13,2,0.78,3.96,1.97,5.55c-0.51,2.51-0.18,5.23,1.05,7.45c-0.11,2.21,0.4,4.46,1.58,6.31
		c-0.03,1.75,0.1,3.51,0.48,5.22c-0.11,2.22,0.12,4.46,0.66,6.6c-1,3.92-0.89,8.14,0.27,12c-1,3.85-0.94,8.01,0.15,11.82
		c-0.07,0.89-0.12,1.77-0.09,2.66c-0.1,0.63-0.15,1.27-0.2,1.91c-0.42,0.97-0.68,2.01-0.79,3.07c-3.05,5.41-0.91,13.83,6.42,14.99
		c1.52,1.52,3.33,2.81,5.47,3.7c1.76,2.09,4.03,3.77,6.78,4.88c1.69,2.21,3.92,4.03,6.66,5.26c0.99,1.2,2.14,2.27,3.46,3.19
		c1.66,2.04,3.76,3.74,6.35,4.89c0.23,0.26,0.51,0.49,0.76,0.74c1.17,2.51,2.86,4.76,5.07,6.53c1.8,4.16,4.98,7.67,9.54,9.53
		c0.15,0.07,0.28,0.16,0.44,0.23c1.17,0.98,2.47,1.83,3.94,2.5c1.96,2.68,4.66,4.85,8.1,6.1c3.15,3.55,7.8,5.92,13.96,5.95
		c3.24,2.75,7.03,4.06,10.87,4.18c2.33,1.02,5.03,1.61,8.1,1.61c1.06,0,2.06-0.09,3.03-0.22c0.96,0.13,1.95,0.22,3,0.22
		c0.92,0,1.79-0.07,2.64-0.16c0.85,0.1,1.72,0.16,2.64,0.16c3.95,0,7.28-0.96,10-2.57c4.32-1.86,7.37-5.22,9.15-9.2
		c0.67-1.02,1.24-2.1,1.71-3.23c1.49-2.49,2.4-5.33,2.75-8.25c0.71-2.05,1.08-4.23,1.16-6.41
		C770.24,383.57,770.45,378.46,769.15,373.83z"/>
	<line class="st1" x1="681.45" y1="392.77" x2="675.52" y2="386.48"/>
</g>
</svg>
