<?xml version="1.0" encoding="utf-8"?>
<!-- Generator: Adobe Illustrator 23.0.5, SVG Export Plug-In . SVG Version: 6.00 Build 0)  -->
<svg version="1.1" id="Слой_1" xmlns="http://www.w3.org/2000/svg" xmlns:xlink="http://www.w3.org/1999/xlink" x="0px" y="0px"
	 viewBox="0 0 1440 841.89" style="enable-background:new 0 0 1440 841.89;" xml:space="preserve">
<style type="text/css">
	.st0{fill:#FFFFFF;stroke:#000000;stroke-width:9;stroke-miterlimit:10;}
	.st1{fill:#C9C8C8;}
	.st2{fill:#FFFFFF;stroke:#000000;stroke-miterlimit:10;}
	.st3{fill:none;stroke:#000000;stroke-miterlimit:10;}
	.st4{fill:#FFFFFF;}
	.st5{font-family:'Sen';font-weight:600;}
	.st6{font-size:88.3347px;}
	.st7{stroke:#000000;stroke-miterlimit:10;}
	.st8{font-size:53.0008px;}
	.st9{font-family:'MyriadPro-Regular';}
</style>
<g>
	<g>
		<g>
			<path class="st0" d="M802.67,635.06H38.4c-12.9,0-23.36-10.46-23.36-23.36V243.44c0-12.9,10.46-23.36,23.36-23.36h764.27
				c12.9,0,23.36,10.46,23.36,23.36V611.7C826.03,624.6,815.57,635.06,802.67,635.06z"/>
			<path d="M799.22,635.06H37.63c-12.48,0-22.6-10.12-22.6-22.6v-29.28h810.99v25.06C826.03,623.06,814.03,635.06,799.22,635.06z"/>
			<rect x="38.92" y="250.31" class="st1" width="545.71" height="100.36"/>
			<rect x="38.92" y="370.75" class="st1" width="272.86" height="121.79"/>
			<rect x="38.92" y="514.31" class="st1" width="545.71" height="43.98"/>
			<rect x="338.78" y="370.75" class="st1" width="245.85" height="52.31"/>
			<rect x="338.78" y="441.05" class="st1" width="245.85" height="52.31"/>
			<rect x="611.64" y="250.31" class="st1" width="192.73" height="172.75"/>
			<rect x="611.64" y="441.05" class="st1" width="192.73" height="52.31"/>
			<rect x="334.39" y="640.7" width="169.63" height="79.5"/>
			<path d="M550.85,748.58H287.69c-3.84,0-6.96-3.11-6.96-6.96v-14.46c0-3.84,3.11-6.96,6.96-6.96h263.15
				c3.84,0,6.96,3.11,6.96,6.96v14.46C557.8,745.47,554.69,748.58,550.85,748.58z"/>
			<path class="st2" d="M539.14,411.78H303.76c-15.23,0-27.57-12.35-27.57-27.57v-103.2c0-15.23,12.35-27.57,27.57-27.57h235.38
				c15.23,0,27.57,12.35,27.57,27.57v103.2C566.72,399.44,554.37,411.78,539.14,411.78z"/>
			<g>
				<polygon class="st2" points="706.48,491.06 209.56,604.35 194.97,534.95 691.89,421.66 				"/>
				<line class="st3" x1="215.23" y1="529.57" x2="222.17" y2="562.59"/>
				<line class="st3" x1="233.38" y1="525.27" x2="237.02" y2="542.59"/>
				<line class="st3" x1="251.16" y1="522.1" x2="258.1" y2="555.11"/>
				<line class="st3" x1="269.32" y1="517.79" x2="272.96" y2="535.12"/>
				<line class="st3" x1="288.33" y1="514.06" x2="295.26" y2="547.07"/>
				<line class="st3" x1="306.48" y1="509.75" x2="310.12" y2="527.08"/>
				<line class="st3" x1="324.26" y1="506.58" x2="331.2" y2="539.6"/>
				<line class="st3" x1="342.42" y1="502.28" x2="346.06" y2="519.6"/>
				<line class="st3" x1="360.62" y1="496.79" x2="367.56" y2="529.8"/>
				<line class="st3" x1="378.78" y1="492.48" x2="382.42" y2="509.81"/>
				<line class="st3" x1="396.56" y1="489.31" x2="403.5" y2="522.33"/>
				<line class="st3" x1="414.72" y1="485.01" x2="418.36" y2="502.33"/>
				<line class="st3" x1="433.72" y1="481.27" x2="440.66" y2="514.29"/>
				<line class="st3" x1="451.88" y1="476.97" x2="455.52" y2="494.29"/>
				<line class="st3" x1="469.66" y1="472.32" x2="476.6" y2="505.34"/>
				<line class="st3" x1="487.82" y1="468.02" x2="491.46" y2="485.34"/>
				<line class="st3" x1="504.81" y1="464.4" x2="511.75" y2="497.41"/>
				<line class="st3" x1="522.97" y1="460.09" x2="526.61" y2="477.42"/>
				<line class="st3" x1="540.75" y1="456.92" x2="547.69" y2="489.94"/>
				<line class="st3" x1="558.9" y1="452.62" x2="562.55" y2="469.94"/>
				<line class="st3" x1="577.91" y1="448.88" x2="584.85" y2="481.9"/>
				<line class="st3" x1="596.07" y1="444.58" x2="599.71" y2="461.9"/>
				<line class="st3" x1="613.85" y1="439.93" x2="620.79" y2="472.95"/>
				<line class="st3" x1="632" y1="435.63" x2="635.65" y2="452.95"/>
				<g>
					<path d="M624.3,545.41c0,0,4.08,187.67,12.92,190.5s8.84,2.83,8.84,2.83l21.08-193.33c0,0,32.64,184.83,40.12,186.96
						c7.48,2.12,11.56-1.42,11.56-1.42l-4.08-206.79l-0.68-9.56"/>
					<path class="st2" d="M600.42,366.95c0,0-31.28-2.83-18.36,104.81l-40.8,47.45c0,0-37.4,14.16-15.64,19.12
						c21.76,4.96,20.4-11.33,20.4-11.33l46.24-41.78l3.4-16.29l25.16,75.78c0,0,93.16,2.12,99.96-36.12c0,0-33.32-97.02-43.52-94.19
						c0,0-11.56-103.39-40.8-123.93c-29.24-20.54-72.76-26.2-72.76-26.2s-29.24-7.08-21.76,4.96c7.48,12.04,19.72,6.37,19.72,6.37
						s54.39,23.37,58.14,27.62c3.74,4.25,21.42,43.2,13.94,52.41H619.8C619.8,355.62,622.18,374.03,600.42,366.95z"/>
					<path class="st2" d="M599.69,367.66v-14.16c0,0-39.44-18.41-14.28-43.91c0,0,37.4-14.87,27.88,38.24l7.48,9.21"/>
					<path class="st2" d="M599.69,353.49c0,0,10.31,1.24,13.6-5.67"/>
					<path d="M614.64,339.03c0.44-1.8,0.27-3.78-0.47-5.46c0.77-2.06,0.7-4.49-0.2-6.48c0.82-2.7,0.28-5.9-1.63-7.91
						c-0.16-2.05-1.04-4.01-2.62-5.27c-0.85-1.99-2.51-3.56-4.98-3.94c-1.1-0.98-2.57-1.6-4.43-1.6c-0.47,0-0.91,0.05-1.33,0.12
						c-1.2-0.35-2.5-0.61-3.94-0.73c-1.64-0.15-2.98,0.22-4.02,0.92c-0.63,0.11-1.25,0.28-1.85,0.48c-0.21,0.07-0.41,0.17-0.61,0.25
						c-2.46-0.01-4.89,1.28-6.22,3.59c-0.21,0.37-0.39,0.73-0.53,1.09c-0.66,0.75-1.14,1.66-1.45,2.63
						c-2.1,1.78-2.72,4.38-2.29,6.99c-0.66,1.36-0.93,2.94-0.79,4.48c-0.15,1.91,0.31,3.88,1.39,5.39c0.36,1.23,1.01,2.37,1.94,3.23
						c0.42,1.19,1.11,2.27,2.09,3.07c0.48,1.24,1.27,2.33,2.36,3.1c0.76,1.61,2.07,2.93,3.95,3.49c0.39,0.45,0.83,0.86,1.34,1.19
						c1.08,1.41,2.72,2.38,4.92,2.48c0.01,0,0.01,0.01,0.02,0.01c1.43,1.94,3.59,2.76,5.74,2.71c1.21,0.45,2.63,0.52,4.22,0.03
						c0.74-0.23,1.41-0.5,2.02-0.8c0.83-0.15,1.54-0.47,2.18-0.86c3.11-1.14,4.54-4.42,4.33-7.55
						C614.51,342.3,614.78,340.64,614.64,339.03z"/>
					<path class="st3" d="M563.7,264.26c0,0,6.6,7.27-2.04,11.33"/>
					<path class="st3" d="M541.26,519.21c0,0,4.98-1.98,4.76,7.79"/>
					<path class="st3" d="M639.33,736.58c0,0-39.39,10.68-17.73,10.68c21.66,0,21.66,0,21.66,0v-19.17"/>
					<path class="st3" d="M710.35,732.96v14.3h29.63c0,0-5.2-9.4-19.2-9.59l-6.42-12.97"/>
				</g>
			</g>
			<path class="st4" d="M618.9,358.5c0.11-1.25-0.13-2.53-0.8-3.56c-0.08-0.14-0.17-0.27-0.26-0.39c-0.03-0.04-0.07-0.08-0.1-0.12
				c-0.8-1-1.99-1.69-3.61-1.69c-2.77,0-4.34,1.95-4.7,4.16c-0.07,0.05-0.13,0.09-0.19,0.15c-2.95,0.91-3.89,4.48-2.85,7.12
				c0.55,1.91,2.05,3.48,4.53,3.48c0.78,0,1.46-0.16,2.04-0.43c0.14-0.03,0.25-0.09,0.38-0.13c1.17-0.2,2.08-0.77,2.72-1.56
				c0.25-0.22,0.47-0.47,0.66-0.73c0.27-0.3,0.49-0.65,0.67-1.01c0.25-0.36,0.44-0.75,0.59-1.17c0.54-0.88,0.79-1.92,0.8-2.97
				C618.85,359.27,618.9,358.88,618.9,358.5z"/>
			<text transform="matrix(0.9602 0 0 1 345.9434 361.6631)" class="st5 st6">CSS</text>
		</g>
		<line class="st3" x1="909.21" y1="722.9" x2="909.21" y2="747.58"/>
		<g>
			<ellipse class="st7" cx="909.19" cy="716.54" rx="5.53" ry="5.76"/>
			<path class="st2" d="M1198.4,454.68c0,0-11.93-1.18-1.48,9.81"/>
			<path d="M914.99,289.08h-11.61c-11.36,0-20.57,9.59-20.57,21.43v315.5c0,7.75,6.03,14.03,13.48,14.03h0.27v55.54h25.99v-55.56
				c7.23-0.25,13.02-6.42,13.02-14.01v-315.5C935.57,298.68,926.36,289.08,914.99,289.08z"/>
			<g>
				<path class="st2" d="M896.56,695.58c0,0-4.3,15.79-16.57,25.81c0,0,30.02,19.8,29.2,27.82"/>
				<path class="st2" d="M922.51,695.49c0,0,4.2,15.79,16.19,25.81c0,0-29.32,19.8-28.53,27.82"/>
			</g>
			<g>
				<path class="st3" d="M833.53,672.49c0,0,17.13,77.7,76.45,78.07c59.33,0.37,75.32-78.07,75.32-78.07"/>
				<line class="st3" x1="834.86" y1="750.56" x2="985.29" y2="750.56"/>
				<rect x="826.96" y="658.18" class="st7" width="14.3" height="14.89"/>
				<rect x="978.34" y="658.18" class="st7" width="14.3" height="14.89"/>
				<rect x="820.76" y="743.53" class="st7" width="14.3" height="14.89"/>
				<rect x="985.65" y="743.12" class="st7" width="14.3" height="14.89"/>
			</g>
			<g>
				<path class="st7" d="M1067.33,523.05l-6.66,89.91l48.1,108.48l-9.62,4.46c0,0-48.1-73.56-58.46-94.36s-14.8-144.15-14.8-144.15
					s61.97,26.01,77.7,14.86l-25.16,234.05h-11.84V545.34"/>
			</g>
			<path class="st2" d="M1105.9,499.65c0,0,11.84-73.21,11.84-70.24s22.2,40.43,79.18,35.07c0,0,32.56,12.04,23.68,0
				c-8.88-12.04-22.2-9.81-22.2-9.81s-51.06-11.32-52.54-25.35c0,0-22.94-69.76-39.96-81.65c0,0-17.76,5.94-23.68-6.69
				c-5.92-12.63-89.54,0-89.54,0l-46.62-32.69c0,0-32.56-45.32-24.42-11.89c0,0,2.22,8.92,17.76,18.58c0,0,40.7,50.53,48.84,51.27
				c0,0,34.78,0.74,50.32,5.94l-24.42,112.94C1014.15,485.14,1085.09,518.62,1105.9,499.65z"/>
			<path class="st2" d="M939.41,314.99c0,0,15.25,4.37,6.66-6.69"/>
			<path class="st2" d="M1083.8,341.74l3.7-8.17c0,0-8.88-48.3,14.8-38.64c23.68,9.66,0,41.61,0,41.61l3.61,11.15"/>
			<path class="st7" d="M1104.86,344.45c0,0-7.98-4.75,4.84-21.14c0,0,5.56-15.53,1.28-23.82c0,0-22.94,0.74-23.68,27.02
				s-5.92,47.82-5.92,47.82s-7.4,31.21,0,47.55c0,0-35.54-31.72-14.06-68.36l5.92-11.89c0,0-11.1-48.38,19.98-51.68
				c0,0,26.05-2.9,25.9,17.5c-0.04,6-1.48,14.69-1.48,14.69s-8.14,22.56-5.18,27.02c2.96,4.46-11.1,63.9-11.1,63.9v-41.61
				l2.96-22.29l13.32-31.84"/>
			<path d="M1110.07,330.48c-1.86,0-2.95,1.23-3.29,2.69c-0.71,0.63-1.11,1.56-1.18,2.52c-0.87,0.84-1.23,2.16-1.06,3.39
				c-2.28,1.84-1.58,6.66,2.1,6.66c2.52,0,3.64-2.26,3.37-4.28c0.78-0.63,1.21-1.62,1.29-2.64c0.49-0.47,0.81-1.1,0.97-1.77
				C1114.43,335.15,1113.7,330.48,1110.07,330.48z"/>
			<path class="st3" d="M1198.4,454.68c0,0-10.09,3.13-1.48,9.81"/>
			<path class="st3" d="M1101.54,724.79c0,0-16.19,15.77-10.42,22.79l20.57-18.92l-5.77-8.27"/>
			<path class="st2" d="M1071.24,736.3l-3.91,12.91h29.93c0,0-2.53-7.02-19.49-8.52l-1.8-4.39H1071.24z"/>
			<path class="st2" d="M1408.93,581.98h-244.01c-13.65,0-24.71-11.06-24.71-24.71v-60.55c0-13.65,11.06-24.71,24.71-24.71h244.01
				c13.65,0,24.71,11.06,24.71,24.71v60.55C1433.64,570.92,1422.58,581.98,1408.93,581.98z"/>
			<text transform="matrix(0.9602 0 0 1 1217.2676 543.5635)" class="st5 st8">HTML</text>
			<path class="st2" d="M1354.74,694.64h-135.63c-8.59,0-15.56-6.96-15.56-15.56V627.4c0-8.59,6.96-15.56,15.56-15.56h135.63
				c8.59,0,15.56,6.96,15.56,15.56v51.68C1370.3,687.67,1363.33,694.64,1354.74,694.64z"/>
			<text transform="matrix(0.9602 0 0 1 1247.8262 665.5732)" class="st5 st8">&lt;/&gt;</text>
		</g>
	</g>
	<path class="st2" d="M388.23,562.52"/>
	<line class="st3" x1="599.69" y1="189.63" x2="599.69" y2="6.19"/>
	<line class="st3" x1="599.69" y1="6.19" x2="1172.63" y2="6.19"/>
	<line class="st3" x1="1172.63" y1="6.19" x2="1172.63" y2="112.95"/>
	<line class="st3" x1="1172.63" y1="192.64" x2="1172.63" y2="441.05"/>
	<rect x="1104.11" y="123.97" class="st7" width="137.42" height="56.13"/>
	<text transform="matrix(0.9602 0 0 1 1142.7676 165.7925)" class="st4 st9 st8">&lt;&gt;</text>
	<ellipse cx="599.38" cy="188.52" rx="10.69" ry="11.14"/>
	<path class="st3" d="M166.89,29.15c0,0-31.99-5.59-35.45-5.14c-3.46,0.45-12.11,1.35-11.67,13.96c0,0-1.73,0.45,2.16,25.67
		c0,0,1.73,6.3-4.76,8.56c-6.49,2.25-31.56,5.85-31.56,9.46s-3.46-4.95-13.84,32.42s-6.05,39.63-6.05,39.63s11.67,13.96,18.16,16.21
		c0,0-1.73,14.86-6.49,18.91c-4.76,4.05-33.72,43.68-32.86,53.59s20.75,59.89,38.05,87.36c0,0,0.86,12.61-7.78,22.97
		c-8.65,10.36,10.38,0,10.38,0l11.67-12.61c0,0-25.51-98.17-27.67-87.36c0,0,51.02-30.62,51.02-36.47c0,0,30.27,27.02,52.75,37.83
		c0,0-22.92,67.09-21.19,69.8c0,0-15.57,4.5-5.62,11.71s26.81,15.76,26.81,15.76s3.46-10.36-12.54-20.71c0,0,41.07-69.35,40.21-74.3
		c0,0,2.16-9.46-17.73-37.83l31.13-0.45l16.43-42.78l-45.4-1.35c0,0-6.49-41.88-7.78-42.33c-1.3-0.45,6.49-3.6,6.49-3.6
		s-3.03-40.08-12.97-41.43c0,0-14.7-12.16-24.64-13.06c0,0,11.24-10.81,10.81-26.57C156.94,46.98,166.02,41.5,166.89,29.15z"/>
	<path class="st3" d="M83.28,169.47c0,0,41.51,33.77,43.67,31.07c0,0,6.49,3.15,9.08,7.2c2.59,4.05,12.97,0,12.97,0l9.94-33.32
		l6.35-0.25l4.89-0.2c0,0-7.35-9.01-8.21-39.63c0,0-6.11,29.5-1.73,34.67"/>
	<path class="st3" d="M91.67,143.39v-14.41c0,0-4.76,4.05-6.05,10.81c0,0,26.81,28.37,47.56,50.88c0,0,16.43,0.9,17.73,5.4h2.16
		l-4.32,11.71"/>
	<line class="st3" x1="91.67" y1="143.39" x2="91.67" y2="146.05"/>
	<path class="st3" d="M177.26,131.63c0,0-16.28,9.38-15.17,6.19"/>
	<line class="st3" x1="170.18" y1="173.97" x2="185.05" y2="173.96"/>
	<line class="st3" x1="182.89" y1="218.54" x2="146.13" y2="217.94"/>
	<line class="st3" x1="158.94" y1="174.42" x2="146.13" y2="217.94"/>
	<path class="st7" d="M114.03,193.23c-26.05-1.74-33.92-8.43-33.92-8.43s-40.77,49.47-35.17,60.04
		c5.59,10.57,29.79,81.88,38.44,85.5s0,0,0,0l8.44-5.94c0,0-16.27-69.18-22.65-71.64c0,0,49.22-29.74,51.02-36.47
		c0,0,50.64,41.64,52.75,37.83c2.11-3.81-24.22,67.55-21.19,69.8s9.19,6.77,9.19,6.77s42.18-68.42,39.58-77.24
		c-2.61-8.83-16.29-35.32-16.29-35.32"/>
	<line class="st3" x1="146.13" y1="217.94" x2="125.79" y2="200.55"/>
	<path class="st3" d="M115.28,72.76c0,0,23.8,27.72,40.41,3.93"/>
	<path class="st3" d="M156.94,46.98c0,0-22.7,3.23-24.86-8.93c0,0,1.82,9.91-10.87,18.01"/>
	<path class="st3" d="M69.26,123.52c0,0,5.13,10.98,18.3,10.82"/>
	<path d="M228.79,175.86c-1.12-0.11-2.25-0.14-3.37-0.08c-0.25,0.01-0.5,0.06-0.76,0.11c-0.18-0.35-0.53-0.44-0.89-0.48
		c-0.57-0.07-1.26,0.03-1.81,0.2c-0.02,0.01-0.04,0.01-0.05,0.02c-1.05-0.52-2.26-0.83-3.67-0.83c-1.11,0-2.1,0.19-2.99,0.52
		c-0.3,0.05-0.6,0.1-0.91,0.17c-0.76-0.22-1.58-0.35-2.49-0.35c-0.3,0-0.58,0.02-0.86,0.04c-0.51-0.09-1.05-0.16-1.62-0.16
		c-0.66,0-1.28,0.07-1.86,0.19c-1.01-0.47-2.19-0.75-3.54-0.75c-0.32,0-0.62,0.02-0.92,0.05c-0.68-0.17-1.42-0.27-2.21-0.27
		c-1.18,0-2.22,0.22-3.15,0.59c-1.23-0.86-2.77-1.37-4.63-1.37c-1.38,0-2.58,0.28-3.61,0.78c-0.83-0.28-1.75-0.44-2.77-0.44
		c-1.61,0-2.98,0.39-4.11,1.05c-0.88-0.03-1.75-0.02-2.64,0.02c-1.14-0.67-2.53-1.07-4.16-1.07c-0.82,0-1.57,0.11-2.27,0.3
		c-0.55-0.11-1.11-0.18-1.73-0.18c-1.34,0-2.52,0.27-3.53,0.74c-0.95-0.4-2.04-0.63-3.28-0.63c-1.35,0-2.51,0.3-3.52,0.78
		c-0.25-0.18-0.5-0.35-0.76-0.5c-0.2-0.12-0.44-0.25-0.65-0.35c-0.03-0.01-0.06-0.03-0.09-0.04c-0.16-0.06-0.33-0.11-0.49-0.16
		c-0.03-0.01-0.06-0.02-0.1-0.03c-0.06-0.01-0.12-0.02-0.17-0.02c-0.19,0-0.39,0.05-0.57,0.13c-0.11,0.05-0.21,0.11-0.29,0.2
		c-0.08,0.08-0.16,0.18-0.21,0.29c-0.09,0.2-0.1,0.4-0.11,0.62c0.09,0.27,0.23,0.51,0.4,0.73c0.19,0.3,0.42,0.57,0.66,0.83
		c-0.01,0.02-0.03,0.04-0.03,0.07c-1.29,1.45-2.03,3.37-2.21,5.35c-0.43,1.22-0.62,2.54-0.57,3.85c-0.52,1.15-0.81,2.43-0.86,3.72
		c-1.62,1.87-2.34,4.48-2.15,7.01c-0.2,0.62-0.33,1.26-0.4,1.91c-1.02,1.38-1.61,3.08-1.75,4.83c-1.61,1.94-2.27,4.64-2,7.2
		c-0.45,0.45-0.77,0.88-1.04,1.54c-0.17,0.41-0.19,0.91-0.24,1.34c0,0.02,0,0.04-0.01,0.06c-0.01,0.05-0.03,0.11-0.05,0.16
		c-0.02,0.04-0.05,0.07-0.07,0.11c-0.19,0.28-0.28,0.61-0.29,0.96c-0.02,0.03-0.04,0.05-0.05,0.08c-0.13,0.22-0.21,0.47-0.28,0.72
		c-0.43,0.24-0.75,0.58-0.95,0.95c-0.37,0.21-0.69,0.48-0.85,0.85c-0.47,1.03,0.4,1.57,1.35,1.57c0.18,0,0.4-0.02,0.62-0.04
		c0.23,0.05,0.47,0.09,0.76,0.09c1.11,0,1.93-0.59,2.31-1.31c0.48,0.11,0.97,0.17,1.45,0.13c0.37-0.05,0.75-0.11,1.12-0.16
		c0.21-0.05,0.41-0.14,0.6-0.21c1.05,0.52,2.28,0.84,3.7,0.84c0.96,0,1.83-0.14,2.62-0.39c0.54,0.1,1.1,0.17,1.71,0.17
		c0.01,0,0.02,0,0.03,0c0.75,0.22,1.56,0.34,2.46,0.34c1.28,0,2.4-0.25,3.38-0.68c0.45,0,0.88-0.04,1.29-0.1
		c0.97,0.42,2.07,0.67,3.33,0.67c0.33,0,0.66-0.02,0.97-0.05c0.78,0.24,1.64,0.39,2.59,0.39c0.71,0,1.37-0.08,1.99-0.22
		c0.6,0.13,1.22,0.22,1.9,0.22c0.89,0,1.71-0.13,2.46-0.35c0.46,0.07,0.93,0.12,1.43,0.12c0.32,0,0.61-0.06,0.91-0.09
		c0.83,0.28,1.75,0.43,2.76,0.43c0.95,0,1.82-0.14,2.6-0.39c0.51,0.09,1.04,0.16,1.61,0.16c1.13,0,2.13-0.2,3.02-0.53
		c0.78,0.26,1.64,0.42,2.6,0.42c1.11,0,2.1-0.19,2.98-0.52c0.88,0.32,1.86,0.52,2.96,0.52c1.06,0,2.01-0.17,2.86-0.48
		c0.43,0.1,0.88,0.16,1.35,0.2c0.77,0.42,1.75,0.58,2.56,0.58c0.52,0,1.1-0.15,1.66-0.37c0.13-0.02,0.27-0.04,0.4-0.07
		c0.39,0.4,0.8,0.69,1.17,0.69c0.07,0-0.1-0.37-0.37-0.88c0.43-0.12,0.85-0.27,1.26-0.46c0.21-0.13,0.42-0.26,0.62-0.38
		c0.31-0.19,0.47-0.47,0.49-0.83c0.14-0.94,0.2-1.88,0.21-2.83c0.15-0.32,0.31-0.64,0.42-0.99c0.82-0.96,1.4-2.12,1.74-3.36
		c1.05-1.43,1.64-3.2,1.77-5.02c0.67-1.08,1.13-2.31,1.31-3.6c0.62-1.06,1-2.27,1.17-3.52c0.55-0.8,0.95-1.7,1.23-2.65
		c0.52-1.08,0.83-2.28,0.93-3.5c0.06-0.14,0.13-0.28,0.19-0.42c1.72-1.65,2.58-4.06,2.62-6.49c0.04-0.04,0.09-0.08,0.13-0.13
		c0.69-0.91,1.04-1.9,1.09-3.05c0-0.06-0.01-0.11-0.01-0.17c0.13-0.07,0.25-0.14,0.37-0.23c0.14-0.14,0.28-0.27,0.43-0.41
		c0.23-0.27,0.38-0.58,0.44-0.94v-1.39c0.11-0.09,0.22-0.17,0.32-0.26c0.18-0.15,0.67-0.56,0.54-0.89
		C229.55,176,229.12,175.9,228.79,175.86z"/>
	<path d="M162.4,27.5c-0.82,0-1.5,0.22-2.07,0.56c-1.48-0.09-2.96,0-4.44-0.17c-0.19-0.03-0.72-0.11-0.81-0.13
		c-0.6-0.11-1.19-0.23-1.79-0.36c-0.97-0.2-1.93-0.42-2.91-0.62c-2.26-0.45-4.54-0.75-6.84-0.76c-0.46,0-0.92,0-1.38-0.01
		c-0.79-0.18-1.59-0.36-2.39-0.48c-0.03-0.02-0.06-0.04-0.08-0.05c-1.09-0.97-2.61-1.4-3.98-1.08c-0.47-0.2-1.01-0.32-1.62-0.32
		c-0.63,0-1.18,0.13-1.66,0.34c-0.14-0.03-0.26-0.09-0.41-0.1c-0.03,0-0.06,0-0.08-0.01c-0.16-0.02-0.32-0.04-0.5-0.04
		c-0.03,0-0.05,0.01-0.07,0.01c-0.23,0-0.45,0.04-0.68,0.08c-0.61,0.11-1.14,0.33-1.58,0.65c-0.07,0-0.14-0.01-0.21,0
		c-1.14,0.03-2.08,0.3-3.1,0.81c-0.33,0.16-0.59,0.4-0.88,0.63c-0.29,0.23-0.58,0.45-0.82,0.73c-0.06,0.06-0.09,0.14-0.15,0.21
		c-0.15,0.06-0.31,0.1-0.46,0.18c-0.52,0.18-0.98,0.48-1.36,0.91c-0.22,0.3-0.44,0.59-0.66,0.89c-0.34,0.62-0.51,1.28-0.55,1.98
		c-0.37,0.47-0.67,1-0.83,1.6c-0.62,1.53-0.52,3.17-0.29,4.77c0.14,0.35,0.28,0.7,0.43,1.05c0.01,0.01,0.02,0.02,0.02,0.03
		c-1.32,1.69-1.25,4.43,0.17,6.04c-0.12,0.77-0.2,1.5-0.2,2.28c0,0.04,0.01,0.08,0.01,0.12c-0.68,1.66-0.42,3.76,0.77,5.08
		c-0.04,0.04-0.09,0.06-0.13,0.11c-0.26,0.35-0.51,0.69-0.77,1.04c-0.14,0.15-0.2,0.32-0.18,0.51c-0.03,0.17,0.02,0.32,0.16,0.44
		c0.16,0.14,0.34,0.23,0.54,0.27c0.25,0.08,0.5,0.12,0.76,0.1c0.21-0.02,0.41-0.03,0.62-0.05c0.45-0.07,0.88-0.19,1.3-0.36
		c0.19-0.09,0.37-0.19,0.56-0.28c0.27-0.15,0.49-0.35,0.69-0.59c2.17-0.29,3.32-2.1,3.45-4.01l0.11-0.15
		c0.16-0.29,0.28-0.6,0.37-0.92c0.73-0.68,1.15-1.63,1.3-2.63c0.56-0.67,0.89-1.52,1-2.41c1.01-1.27,1.23-3.16,0.67-4.71
		c0.01-0.09,0.03-0.17,0.03-0.26c0.22,0.03,0.44,0.07,0.69,0.07c0.03,0,0.06-0.01,0.09-0.01c0.53,1.39,1.2,2.57,2.3,3.58
		c1.03,0.94,2.06,1.73,3.32,2.28c0.9,0.39,1.84,0.66,2.78,0.91c0.67,1.04,1.77,1.78,3.34,1.78c0.84,0,1.53-0.23,2.12-0.58
		c0.6,0.42,1.34,0.69,2.26,0.69c0.62,0,1.15-0.13,1.63-0.33c0.3,0.07,0.62,0.1,0.96,0.1c0.52,0,0.98-0.1,1.4-0.25
		c0.33,0.09,0.7,0.13,1.09,0.13c0.32,0,0.61-0.04,0.9-0.09c0.38,0.12,0.8,0.21,1.27,0.21c2.12,0,3.39-1.33,3.85-2.96
		c1.44-0.44,2.33-1.61,2.67-2.96c0.32-0.4,0.51-0.88,0.66-1.38c1.28-0.8,1.94-2.29,1.94-3.8c0.68-0.51,1.17-1.21,1.43-2.03
		C167.15,31.16,165.92,27.5,162.4,27.5z"/>
	<line class="st3" x1="151.75" y1="323.91" x2="160.4" y2="330.67"/>
	<line class="st3" x1="82.58" y1="329.77" x2="92.36" y2="323.21"/>
	<path d="M173.53,346.94c-0.08-0.2-0.22-0.35-0.43-0.44c-0.1-0.06-0.21-0.06-0.32-0.09c-0.13-0.12-0.25-0.26-0.35-0.4
		c-0.03-0.04-0.05-0.09-0.08-0.13c0,0,0,0,0,0c0.16-0.17,0.27-0.38,0.31-0.62c0-0.14-0.01-0.28-0.01-0.41
		c-0.09-0.29-0.26-0.5-0.53-0.65c-0.06-0.02-0.11-0.05-0.17-0.07c0.21-0.63-0.19-0.96-0.76-1.08c-0.07-1.04-0.42-2.06-1.12-2.8
		c-0.42-0.97-1.13-1.79-2.21-2.17c-0.16-1.5-0.93-2.92-2.38-3.53c-0.58-0.93-1.51-1.61-2.81-1.77c-0.2-0.53-0.48-1.01-0.89-1.4
		c-0.29-0.23-0.57-0.46-0.86-0.69c-0.43-0.26-0.88-0.4-1.35-0.49c-0.63-1.19-1.9-2.03-3.11-2.37c-0.17-0.05-0.35-0.08-0.53-0.11
		c-0.11-0.14-0.23-0.28-0.33-0.43c-0.28-0.37-0.55-0.74-0.83-1.11c-0.22-0.3-0.44-0.59-0.66-0.89c-0.38-0.43-0.84-0.73-1.36-0.91
		c-0.84-0.37-1.86-0.52-2.76-0.22c-0.7,0.24-1.33,0.62-1.87,1.13c-0.41,0.4-0.7,0.87-0.88,1.42c-0.03,0.06-0.04,0.12-0.07,0.18
		c-5,0.1-5.31,7.7-0.9,8.7c0.46,0.31,0.99,0.55,1.62,0.64c0.3,0.2,0.64,0.36,1.02,0.48c0.59,0.85,1.48,1.49,2.71,1.64
		c0.48,0.7,1.16,1.25,2.06,1.52c0.59,1.15,1.67,2.01,3.24,2.11c0.59,0.63,1.4,1.08,2.44,1.18c0.12,0.16,0.24,0.32,0.36,0.48
		c0.53,0.55,1.15,0.92,1.87,1.13c0.07,0.02,0.13,0.05,0.2,0.07c0.13,0.07,0.26,0.15,0.39,0.24c0.14,0.14,0.29,0.28,0.42,0.44
		c0.2,0.25,0.43,0.47,0.69,0.65c0.34,0.33,0.75,0.55,1.2,0.69c0.66,0.6,1.55,0.99,2.68,0.99c0.22,0,0.43-0.02,0.63-0.05
		c0.12,0.15,0.24,0.3,0.38,0.43c0.04,0.03,0.1,0.03,0.14,0.05c0.05,0.22,0.16,0.43,0.31,0.61c0,0.28,0,0.57,0.05,0.85
		c0.05,0.22,0.17,0.38,0.35,0.48c0.17,0.17,0.38,0.27,0.62,0.31c0.29,0.08,0.57,0.1,0.86,0.07c0.33,0,0.66-0.04,0.98-0.14
		c0.21-0.08,0.43-0.15,0.64-0.23c0.37-0.16,0.7-0.38,0.99-0.66c0.1-0.13,0.21-0.26,0.31-0.39c0.16-0.25,0.21-0.51,0.15-0.8
		c-0.01-0.08-0.02-0.17-0.02-0.25c0.01-0.2,0.02-0.4,0.06-0.59C173.68,347.3,173.65,347.11,173.53,346.94z"/>
	<path d="M95.87,337.7c0.07-1.36-0.38-2.74-1.34-3.65c0.16-1.25-0.11-2.58-0.85-3.57c0.12-1.43-0.34-2.9-1.36-3.84
		c0.07-0.09,0.13-0.19,0.21-0.26c-0.05,0.05-0.11,0.11-0.16,0.16c0.15-0.11,0.29-0.25,0.37-0.42c0.1-0.12,0.13-0.26,0.11-0.41
		c0.08-0.08,0.15-0.16,0.2-0.25c0.52-0.95-0.45-1.05-1.21-1.05c-0.89,0-2.78,0.38-3.27,1.28c-0.04,0.07-0.05,0.13-0.08,0.19
		c-1.31,0.37-2.21,1.3-2.62,2.48c-0.52,0.14-0.99,0.39-1.38,0.77c-0.46,0.31-0.82,0.72-1.09,1.24c-0.31,0.51-0.48,1.05-0.5,1.64
		c-0.13,0.59-0.1,1.17,0.08,1.76c0.02,0.04,0.03,0.08,0.05,0.13c-0.03,0.32-0.04,0.65-0.02,0.97c-0.28,0.79-0.34,1.66-0.22,2.49
		c-0.44,0.56-0.72,1.23-0.86,1.94c-1.07,1.22-1.34,3.06-0.85,4.63c-0.64,0.65-1.03,1.51-1.18,2.43c-0.01,0.01-0.02,0.01-0.03,0.01
		c-0.25,0.18-0.59,0.4-0.57,0.76c0,0.06-0.01,0.11-0.01,0.17c-0.66,0.37-1.23,0.89-1.38,1.69c-0.01,0.04-0.01,0.09-0.01,0.14
		c-0.33,0.57-0.65,1.14-0.93,1.73c-0.15,0.31-0.26,0.63-0.39,0.95c-0.42,0.15-0.83,0.33-1.2,0.56c-1.52,0.96-2.78,2.37-3.44,4.1
		c-0.33,0.86,1.65,0.56,1.97,0.5c0.64-0.13,1.29-0.3,1.87-0.61c0.17-0.09,0.39-0.19,0.58-0.32c0.51-0.15,1.01-0.32,1.48-0.56
		c0.15-0.08,0.3-0.17,0.45-0.26c0.49,0.03,1-0.01,1.47-0.15c2.19-0.64,4.26-1.9,5.7-3.77c0.66-0.26,1.2-0.67,1.6-1.2
		c1.34-0.54,2.14-1.74,2.41-3.09c0.24-0.31,0.49-0.62,0.71-0.96c0.01-0.01,0.01-0.02,0.02-0.03c1.39-0.42,2.27-1.52,2.63-2.8
		C95.38,342.68,96.42,339.98,95.87,337.7z"/>
</g>
</svg>
