<?xml version="1.0" encoding="utf-8"?>
<!-- Generator: Adobe Illustrator 23.0.5, SVG Export Plug-In . SVG Version: 6.00 Build 0)  -->
<svg version="1.1" id="Слой_1" xmlns="http://www.w3.org/2000/svg" xmlns:xlink="http://www.w3.org/1999/xlink" x="0px" y="0px"
	 viewBox="0 0 1440 900" style="enable-background:new 0 0 1440 900;" xml:space="preserve">
<style type="text/css">
	.st0{fill:#FFFFFF;stroke:#000000;stroke-width:6;stroke-miterlimit:10;}
	.st1{stroke:#000000;stroke-miterlimit:10;}
	.st2{opacity:0.2;}
	.st3{opacity:0.4;stroke:#000000;stroke-miterlimit:10;}
	.st4{stroke:#FFFFFF;stroke-miterlimit:10;}
	.st5{fill:none;stroke:#000000;stroke-miterlimit:10;}
	.st6{fill:#FFFFFF;}
	.st7{fill:#FFFFFF;stroke:#000000;stroke-miterlimit:10;}
	.st8{fill:none;stroke:#000000;stroke-width:4;stroke-miterlimit:10;}
</style>
<g>
	<path class="st0" d="M833.88,797.01h-336.5c-11.84,0-21.43-9.6-21.43-21.43V64.42c0-11.84,9.6-21.43,21.43-21.43h336.5
		c11.84,0,21.43,9.6,21.43,21.43v711.15C855.31,787.41,845.72,797.01,833.88,797.01z"/>
	<path class="st1" d="M754.19,64.79H569.08c-1.08,0-1.96-0.88-1.96-1.96V47.49h189.02v15.35C756.14,63.92,755.27,64.79,754.19,64.79
		z"/>
	<g>
		<g>
			<rect x="690.95" y="151.76" class="st2" width="310.15" height="547.1"/>
			<rect x="718.02" y="189.22" class="st3" width="115.81" height="115.81"/>
			<rect x="718.02" y="336.53" class="st3" width="115.81" height="115.81"/>
			<rect x="878.64" y="333.92" class="st3" width="94.95" height="301.72"/>
			<rect x="718.02" y="472.08" class="st3" width="115.81" height="57.9"/>
			<rect x="718.02" y="577.43" class="st3" width="115.81" height="57.9"/>
		</g>
		<path class="st4" d="M1154.14,516.32c0,0,59.46,15.97,102.94-14.2c0,0,4.44,82.53-4.44,112.7c0,0,28.4,46.15,47.92,167.72
			l9.76,12.42c0,0,7.99,1.77-3.55,9.76c-11.54,7.99-43.48,7.1-43.48,7.1s-2.66-15.09,22.19-15.97l-70.99-174.82l-6.21-31.06
			l-15.09,45.26c0,0,7.99,121.58,4.44,165.95l4.44,15.97c0,0-0.89,2.66-9.76,7.1c-8.87,4.44-42.6-8.87-42.6-8.87
			s4.56-14.48,27.51-9.76l-31.95-169.5C1145.26,636.13,1152.36,520.76,1154.14,516.32z"/>
		<path class="st5" d="M1215.28,306.09"/>
		<path class="st5" d="M1215.28,306.09"/>
		<path class="st5" d="M1152.54,519.04c0,0,63.89,20.3,104.83-13.98l-9.65-149.09c0,0-6.32-39.93-34.28-51.91l-1.77-9.1
			c0,0,18.19-13.76,18.64-20.19c0.44-6.43,2.66-39.71-31.95-39.05c0,0-21.52-10.43-23.52-17.3s-13.09,8.43-9.98,33.5
			c0,0-5.99,55.69,15.97,54.35l-0.22,9.32c0,0-13.76,9.1-18.86,17.53s-43.04-63.01-43.04-63.01l29.17-55.91L884.65,81.99
			l-39.49,78.54l180.15,92.29c0,0,3.55,15.53,18.19,17.3c0,0,53.69,122.91,64.78,119.36c0,0-4.88,9.76,53.69-0.89
			C1161.97,388.59,1160.86,530.58,1152.54,519.04z"/>
		<path class="st5" d="M1160.29,333.79c0,0-27.51,27.51-32.39,26.62s-7.54-3.55-7.54-3.55l-57.68-86.97l46.15,22.63l2.66-7.1
			l27.51,61.23"/>
		<path class="st5" d="M1137.09,355.01c0,0-13.31,19.56,5.65,36.69"/>
		<line class="st5" x1="1136.35" y1="340.79" x2="1141.05" y2="351.73"/>
		<line class="st5" x1="1111.48" y1="285.43" x2="1118.71" y2="270.12"/>
		<path class="st5" d="M1164.85,251.93c0,0,7.38,14.94,27.68,10.28c0,0,2.66,27.14,19.14,32.76"/>
		<path d="M1228.95,264.04c0.47-3.06,0.05-6.28-1.39-8.98c-0.34-4.36-2.54-8.54-6.66-10.57c-1.79-3.12-4.89-5.48-9.33-5.89
			c-2.01-1.67-4.69-2.73-8.06-2.73c-1.55,0-2.96,0.23-4.22,0.63c-0.86-0.31-1.76-0.57-2.76-0.7c-1.54-2.33-3.88-4.12-7.02-4.87
			c-0.97-0.61-2.01-1.14-3.22-1.47c-1.42-1.32-3.25-2.26-5.43-2.74c-0.39-0.33-0.8-0.65-1.23-0.96c-0.01-0.41-0.04-0.8-0.13-1.18
			c-0.55-2.15-1.98-3.77-3.81-4.68c0.7-0.56,0.89-1.04,0.13-1.2c0.2-0.52-0.06-0.94-1.17-0.94c-1.69,0-4.01,0.27-5.34,1.43
			c-0.73,0.64-1.05,1.39-0.33,1.69c-0.97,1.36-1.32,3.27-0.92,4.85c0.04,0.17,0.12,0.32,0.17,0.48c-0.85,0.8-1.51,1.85-1.92,2.92
			c-0.57,1.51-0.51,3.15-0.03,4.68c0,0.01,0.01,0.01,0.02,0.02c-1.09,2.7-1.34,5.78-0.72,8.65c-1.93,6.52,0.77,14.58,8.1,16.69
			c2.09,2.31,5.13,3.86,9.2,3.86c0.89,0,1.72-0.1,2.52-0.24c0.12,0,0.24,0.02,0.36,0.02c2.36,0,4.37-0.53,6.07-1.41
			c0.62,0.13,1.26,0.21,1.94,0.25c-0.5,3.21,0.04,6.6,1.63,9.38c0.14,2.04,0.74,4.02,1.7,5.78c0.43,2.68,1.63,5.18,3.54,7.09
			c0.73,1.79,1.86,3.39,3.35,4.67c-0.01,0.33,0.09,0.71,0.41,1.18c0.13,0.19,0.31,0.37,0.49,0.54c0.88,2.09,2.77,3.71,5.72,3.71
			c1.63,0,2.94-0.5,3.93-1.3c1.15-0.24,2.11-0.77,1.74-1.89c3.95-1.23,6.53-4.22,7.71-7.74c0.23-0.4,0.45-0.8,0.64-1.22
			C1230.55,278.26,1232.01,269.94,1228.95,264.04z"/>
		<path class="st6" d="M978.63,156.95c-9.47-4.61-19.01-7.47-29.25-8.69c-3.14-3.4-7.7-5.64-13.72-5.64
			c-23.07,0-25,32.84-5.75,38.31c3.46,3.45,8.24,5.59,13.75,5.91c0.95,0.05,3.01,0.29,3.16,0.26c1.52,0.28,3.04,0.6,4.54,0.99
			c1.69,0.44,3.35,0.95,5,1.53c0.37,0.13,0.74,0.28,1.11,0.42c0.21,0.11,0.69,0.33,1.43,0.68c9.18,4.46,21.56,2.81,26.75-7.01
			C990.28,174.92,988.45,161.72,978.63,156.95z"/>
		<path d="M1139.41,209.63c-0.15,0-0.31,0.03-0.46,0.04c-0.84-0.34-1.7-0.6-2.6-0.67c-0.34-0.03-0.7,0-1.05,0.04
			c-1.92-2.04-4.37-3.66-7.36-4.6c-1.22-0.73-2.55-1.33-4.03-1.76c-2.92-3.07-7.05-5.16-12.39-5.43c-1.75-1.25-3.78-2.23-6.13-2.79
			c-2.49-2.66-5.87-4.6-10.15-5.29c-0.48-0.33-0.92-0.71-1.45-1c-2.33-2.13-5.32-3.66-8.97-4.29c-2.47-2.4-5.72-4.12-9.77-4.73
			c-1.45-0.94-2.89-1.87-4.28-2.78c-1.17-0.77-2.4-1.35-3.68-1.79c-2.78-3.52-6.92-6.04-12.43-6.57c-2.4-2.24-5.56-3.79-9.39-4.41
			c-0.82-0.71-1.87-1.2-3.16-1.37c-2.37-2.29-5.42-4-9.25-4.65c-2.2-2.01-4.95-3.54-8.33-4.23c-2.71-3.47-6.74-5.98-12.08-6.6
			c-0.96-0.9-2.26-1.48-3.9-1.56c-2.55-2.58-5.97-4.42-10.28-5.02c-2.8-3.83-7.12-6.59-12.97-7.12c-0.91-0.76-1.89-1.47-3.01-2.04
			c-4.45-2.29-8.85-4.72-13.38-6.84c-3.17-1.48-6.31-2.67-9.65-3.64c-0.35-0.11-0.63-0.21-0.88-0.29c-1.05-0.56-2.08-1.13-3.11-1.74
			c-0.12-0.07-0.25-0.12-0.37-0.19c-0.42-0.28-0.87-0.53-1.33-0.78c-2.49-2.95-6-5.11-10.5-5.89c-0.83-0.45-1.69-0.87-2.63-1.2
			c-1.78-1.03-3.82-1.76-6.12-2.15c-1.69-1.81-3.77-3.32-6.29-4.3c-2.99-3.6-7.48-6.06-13.44-6.29c-2.91-3.87-7.41-6.59-13.5-6.96
			c-1.2-0.55-2.54-0.92-3.95-1.21c-0.73-1.18-1.86-2.1-3.37-2.53c-0.45-0.39-0.95-0.73-1.55-0.97c-1.02-1.55-2.74-2.64-5.17-2.64
			c-4.84,0-6.85,4.33-6.11,8c-0.43,0.7-0.72,1.48-0.88,2.3c-2.99,2.74-4.95,6.38-5.76,10.34c-0.54,0.87-1.03,1.76-1.43,2.71
			c-1.17,1.65-2.02,3.49-2.64,5.43c-2.03,2.52-3.31,5.57-3.93,8.78c-2.39,2.33-4,5.32-4.91,8.53c-1.5,2.05-2.55,4.41-3.18,6.89
			c-2.78,2.92-4.47,6.72-5.06,10.72c-2.73,0.8-4.14,3.26-4.29,5.8c-3.85,3.04-3.02,10.53,2.51,11.62c1.04,1.36,2.66,2.3,4.9,2.3
			c0.08,0,0.13-0.03,0.21-0.03c1.04,1.39,2.68,2.36,4.95,2.36c0,0,0.01,0,0.01,0c1.02,0.91,2.39,1.5,4.15,1.5
			c0.36,0,0.68-0.05,1.01-0.1c1.55,1.29,3.35,2.36,5.43,3.07c1.93,1.29,4.18,2.24,6.79,2.71c2.95,4.52,7.88,7.75,14.8,7.98
			c2.54,2.33,5.84,3.99,9.95,4.51c2.22,2.73,5.26,4.83,9.15,5.84c1.57,1.04,3.36,1.84,5.37,2.35c3.01,3.78,7.59,6.4,13.78,6.61
			c2.45,2.67,5.78,4.61,10,5.35c1.99,2.16,4.56,3.86,7.71,4.81c2.19,1.63,4.87,2.8,8.03,3.28c2.79,2.98,6.72,5.02,11.75,5.45
			c0.96,0.95,2.02,1.81,3.22,2.52c2.65,2.69,6.23,4.57,10.78,5.1c2.43,2.85,5.82,4.95,10.14,5.77c3.12,3.77,7.85,6.32,14.21,6.36
			c2.76,4.63,7.12,7.14,11.91,7.81c1.76,0.63,3.7,1.03,5.84,1.13c2.73,3.3,6.68,5.66,11.89,6.23c0.78,0.23,1.6,0.39,2.45,0.53
			c1.27,0.89,2.71,1.61,4.29,2.15c1.24,0.97,2.68,1.75,4.24,2.37c3.15,3.65,7.86,6.08,14.14,6.08c0.04,0,0.07-0.01,0.11-0.01
			c0.17,0.1,0.33,0.21,0.5,0.3c2.94,3.56,7.33,6,13.16,6.3c0.91,0.47,1.87,0.87,2.91,1.18c1.86,2.08,4.24,3.73,7.15,4.74
			c2.42,2.02,5.5,3.43,9.22,3.92c0.72,0.84,1.82,1.41,2.98,1.79c0.38,0.36,0.85,0.67,1.37,0.94c0.07,0.06,0.14,0.11,0.21,0.16
			c0.05,0.04,0.1,0.07,0.15,0.1c0.52,0.34,1.05,0.68,1.57,1.01c0.09,0.06,0.19,0.12,0.29,0.17c0.6,0.33,1.23,0.62,1.85,0.92
			c0.7,0.32,1.42,0.54,2.17,0.66c0.6,0.17,1.21,0.22,1.84,0.16c0.49,0.01,0.88-0.16,1.18-0.51c0.35-0.22,0.49-0.56,0.44-1.01
			c-0.08-0.29-0.16-0.57-0.24-0.86c0.54-0.35,0.78-0.88,0.47-1.62c0.2-0.2,0.39-0.41,0.55-0.65c0.07,0,0.15,0.03,0.22,0.03
			c0.14,0,0.09-0.08-0.08-0.22c0.01-0.02,0.03-0.04,0.04-0.06c1.3-2.35,2.6-4.69,3.91-7.04c0.46-0.84,0.4-1.86,0.05-2.73
			c0.42-0.73,0.82-1.46,1.14-2.24c1.96-2.31,3.3-5.1,4.02-8.07c1.95-2.19,3.33-4.84,4.12-7.68c3.16-2.9,5.05-6.87,5.78-11.09
			c2.05-1.92,3.54-4.31,4.55-6.91c1.87-2.03,3.17-4.49,4.01-7.11c0.97-1.83,1.65-3.82,2.05-5.87c0.18-0.09,0.35-0.18,0.51-0.33
			c1.96-1.84,3.44-4.17,4.42-6.66c0.22-0.57,0.46-1.16,0.54-1.77c0.05-0.36,0.03-0.7,0-1.05c0.09-0.09,0.19-0.16,0.27-0.26
			c0.27-0.11,0.38-0.29,0.34-0.52c0.42-0.69,0.65-1.5,0.49-2.44C1146.2,211.09,1142.2,209.63,1139.41,209.63z"/>
		<line class="st5" x1="1025.31" y1="252.81" x2="1062.67" y2="269.9"/>
		
			<rect x="1019.24" y="224.24" transform="matrix(0.9043 0.427 -0.427 0.9043 200.1801 -427.887)" class="st6" width="69.93" height="16.36"/>
		
			<rect x="886.39" y="122.35" transform="matrix(0.9043 0.427 -0.427 0.9043 143.9529 -380.916)" class="st6" width="69.93" height="16.36"/>
		
			<rect x="915.14" y="175.09" transform="matrix(0.9043 0.427 -0.427 0.9043 169.2236 -388.1443)" class="st6" width="69.93" height="16.36"/>
	</g>
	<path class="st5" d="M323.53,382.1c0,0-49.25-8.26-54.58-7.6c-5.32,0.67-18.64,2-17.97,20.63c0,0-2.66,0.67,3.33,37.94
		c0,0,2.66,9.32-7.32,12.65c-9.98,3.33-48.59,8.65-48.59,13.98c0,5.32-5.32-7.32-21.3,47.92s-9.32,58.57-9.32,58.57
		s17.97,20.63,27.95,23.96c0,0-2.66,21.96-9.98,27.95c-7.32,5.99-51.91,64.56-50.58,79.2s31.95,88.52,58.57,129.12
		c0,0,1.33,18.64-11.98,33.94s15.97,0,15.97,0l17.97-18.64c0,0-39.27-145.09-42.6-129.12c0,0,78.54-45.26,78.54-53.91
		c0,0,46.59,39.93,81.2,55.91c0,0-35.28,99.17-32.61,103.16c0,0-23.96,6.66-8.65,17.3s41.27,23.29,41.27,23.29
		s5.32-15.31-19.3-30.62c0,0,63.23-102.5,61.9-109.82c0,0,3.33-13.98-27.29-55.91l47.92-0.67l25.29-63.23l-69.88-2
		c0,0-9.98-61.9-11.98-62.56c-2-0.67,9.98-5.32,9.98-5.32s-4.66-59.24-19.97-61.23c0,0-22.63-17.97-37.94-19.3
		c0,0,17.3-15.97,16.64-39.27C308.22,408.45,322.19,400.35,323.53,382.1z"/>
	<path class="st5" d="M194.82,589.49c0,0,63.89,49.92,67.22,45.92c0,0,9.98,4.66,13.98,10.65c3.99,5.99,19.97,0,19.97,0l15.31-49.25
		l9.77-0.38l7.53-0.29c0,0-11.31-13.31-12.65-58.57c0,0-9.41,43.6-2.66,51.25"/>
	<path class="st5" d="M207.74,550.95v-21.3c0,0-7.32,5.99-9.32,15.97c0,0,41.27,41.93,73.21,75.21c0,0,25.29,1.33,27.29,7.99h3.33
		l-6.66,17.3"/>
	<line class="st5" x1="207.74" y1="550.95" x2="207.74" y2="554.88"/>
	<path class="st5" d="M339.5,533.57c0,0-25.06,13.86-23.34,9.15"/>
	<line class="st5" x1="328.6" y1="596.15" x2="351.48" y2="596.14"/>
	<line class="st5" x1="348.15" y1="662.03" x2="291.58" y2="661.14"/>
	<line class="st5" x1="311.29" y1="596.81" x2="291.58" y2="661.14"/>
	<path class="st5" d="M189.94,612.16c0,0,12.13,9.89,52.22,12.46"/>
	<line class="st5" x1="291.58" y1="661.14" x2="260.26" y2="635.43"/>
	<path class="st7" d="M225.54,680.39c0,0,20.67,14.72,55,1.23"/>
	<line class="st8" x1="253.04" y1="687.31" x2="253.04" y2="862.14"/>
	<path d="M276.6,678.72c-0.12-2.19-2.12-3.24-4.27-3.44c-0.96-1.7-2.69-2.95-5.2-3.01c-0.69-2.46-2.68-4.51-6-4.51
		c-0.18,0-0.33,0.04-0.5,0.05c-0.31-1.9-1.35-3.65-3.14-4.59c-1.04-1.44-2.69-2.44-5.01-2.44c-3.14,0-5.08,1.84-5.86,4.12
		c-1.67,0.81-2.72,2.31-3.16,4.01c-0.05,0.02-0.1,0.03-0.14,0.05c-0.81,0.26-1.51,0.71-2.1,1.35c-0.47,0.44-0.8,0.95-1.07,1.5
		c-1.17,0.08-2.13,0.45-2.95,0.97c-0.16,0.05-0.3,0.13-0.45,0.2c-2.56,0.2-4.23,1.69-5.06,3.58c-4.18,0.25-5.31,5.78-0.31,5.78
		c0.1,0,0.18-0.02,0.28-0.02c0.88,2.05,2.76,3.64,5.68,3.64c1.07,0,1.99-0.21,2.79-0.58c0.24-0.03,0.5-0.03,0.72-0.08
		c1.02,0.9,2.39,1.49,4.14,1.49c1.26,0,2.31-0.31,3.18-0.81c0.46,0.1,0.95,0.15,1.48,0.15c0.35,0,0.65-0.08,0.96-0.12
		c0.81,0.39,1.76,0.62,2.86,0.62c1.18,0,2.17-0.28,3.02-0.72c0.38,0.1,0.8,0.13,1.23,0.17c0.78,0.35,1.7,0.55,2.74,0.55
		c1.88,0,3.32-0.67,4.36-1.69c0.64,0.21,1.34,0.36,2.13,0.36c0.39,0,0.75-0.03,1.1-0.09c0.41,0.06,0.82,0.11,1.24,0.11
		c0.68,0,1.39-0.15,2.1-0.39c0.44,0.33,0.87,0.55,1.25,0.55c0.57,0,0.55-0.55,0.28-1.25c0.15-0.09,0.29-0.2,0.44-0.3
		c0.32,0.06,0.66,0.1,1.06,0.1C278.25,684.03,279.85,679.71,276.6,678.72z"/>
	<path class="st5" d="M244.08,446.55c0,0,36.63,40.97,62.2,5.81"/>
	<path class="st5" d="M308.22,408.45c0,0-34.94,4.77-38.27-13.2c0,0,2.8,14.64-16.74,26.62"/>
	<path class="st5" d="M173.24,521.58c0,0,7.9,16.23,28.17,15.99"/>
	<path d="M418.81,598.95c-1.72-0.16-3.47-0.2-5.19-0.12c-0.39,0.02-0.78,0.09-1.16,0.16c-0.28-0.51-0.81-0.65-1.37-0.71
		c-0.88-0.11-1.94,0.05-2.78,0.29c-0.03,0.01-0.05,0.02-0.08,0.03c-1.61-0.76-3.48-1.23-5.66-1.23c-1.71,0-3.23,0.28-4.6,0.77
		c-0.46,0.07-0.93,0.14-1.4,0.26c-1.16-0.33-2.43-0.52-3.83-0.52c-0.46,0-0.9,0.03-1.33,0.07c-0.79-0.14-1.61-0.23-2.5-0.23
		c-1.02,0-1.97,0.1-2.87,0.28c-1.56-0.7-3.37-1.11-5.45-1.11c-0.49,0-0.96,0.03-1.42,0.07c-1.05-0.26-2.18-0.4-3.4-0.4
		c-1.82,0-3.42,0.32-4.85,0.87c-1.89-1.26-4.26-2.03-7.13-2.03c-2.12,0-3.97,0.42-5.56,1.15c-1.27-0.41-2.69-0.65-4.26-0.65
		c-2.48,0-4.58,0.58-6.33,1.55c-1.35-0.04-2.7-0.03-4.07,0.04c-1.76-0.99-3.89-1.59-6.41-1.59c-1.26,0-2.42,0.16-3.49,0.44
		c-0.84-0.16-1.71-0.27-2.66-0.27c-2.07,0-3.88,0.4-5.44,1.1c-1.47-0.59-3.14-0.93-5.04-0.93c-2.08,0-3.86,0.45-5.42,1.16
		c-0.38-0.26-0.77-0.52-1.17-0.75c-0.31-0.18-0.68-0.36-1-0.52c-0.05-0.02-0.09-0.04-0.14-0.06c-0.25-0.09-0.51-0.16-0.76-0.24
		c-0.05-0.01-0.1-0.03-0.15-0.04c-0.09-0.02-0.18-0.03-0.27-0.03c-0.29,0-0.6,0.08-0.87,0.19c-0.17,0.07-0.32,0.17-0.45,0.29
		s-0.24,0.27-0.32,0.43c-0.14,0.29-0.15,0.59-0.17,0.91c0.14,0.39,0.35,0.75,0.62,1.07c0.3,0.44,0.65,0.84,1.02,1.23
		c-0.01,0.04-0.05,0.06-0.05,0.1c-1.99,2.14-3.13,4.97-3.4,7.91c-0.66,1.8-0.96,3.75-0.87,5.69c-0.8,1.7-1.25,3.59-1.33,5.5
		c-2.49,2.76-3.61,6.62-3.31,10.37c-0.3,0.91-0.51,1.86-0.62,2.83c-1.56,2.04-2.48,4.55-2.7,7.14c-2.48,2.86-3.49,6.85-3.08,10.65
		c-0.69,0.67-1.18,1.3-1.6,2.27c-0.26,0.61-0.29,1.35-0.37,1.99c0,0.03-0.01,0.06-0.01,0.09c-0.02,0.08-0.05,0.16-0.07,0.24
		c-0.03,0.06-0.08,0.1-0.1,0.17c-0.3,0.42-0.42,0.9-0.45,1.41c-0.02,0.04-0.06,0.07-0.08,0.11c-0.19,0.33-0.32,0.7-0.43,1.06
		c-0.65,0.35-1.15,0.86-1.46,1.41c-0.57,0.31-1.06,0.71-1.31,1.25c-0.73,1.53,0.62,2.33,2.08,2.33c0.28,0,0.61-0.02,0.95-0.06
		c0.35,0.08,0.72,0.14,1.17,0.14c1.71,0,2.97-0.88,3.55-1.93c0.74,0.16,1.49,0.25,2.23,0.19c0.57-0.08,1.15-0.16,1.72-0.24
		c0.32-0.07,0.62-0.2,0.93-0.31c1.62,0.77,3.51,1.24,5.7,1.24c1.47,0,2.81-0.21,4.03-0.58c0.83,0.15,1.7,0.25,2.63,0.25
		c0.02,0,0.03,0,0.05,0c1.15,0.32,2.41,0.5,3.78,0.5c1.97,0,3.69-0.37,5.2-1c0.69,0,1.35-0.06,1.98-0.15
		c1.49,0.62,3.19,0.98,5.13,0.98c0.52,0,1.01-0.03,1.5-0.07c1.21,0.36,2.53,0.57,3.99,0.57c1.09,0,2.11-0.12,3.07-0.32
		c0.92,0.19,1.88,0.32,2.93,0.32c1.38,0,2.63-0.19,3.78-0.51c0.7,0.11,1.43,0.18,2.21,0.18c0.5,0,0.94-0.09,1.4-0.14
		c1.27,0.41,2.69,0.64,4.25,0.64c1.47,0,2.8-0.21,4.01-0.57c0.79,0.14,1.6,0.24,2.48,0.24c1.73,0,3.28-0.29,4.65-0.79
		c1.2,0.38,2.52,0.62,4,0.62c1.71,0,3.23-0.28,4.59-0.77c1.35,0.48,2.86,0.77,4.56,0.77c1.63,0,3.1-0.26,4.41-0.7
		c0.66,0.15,1.36,0.24,2.08,0.3c1.18,0.63,2.7,0.85,3.94,0.85c0.8,0,1.69-0.22,2.56-0.55c0.2-0.03,0.41-0.07,0.61-0.1
		c0.6,0.59,1.22,1.02,1.8,1.02c0.11,0-0.15-0.55-0.56-1.3c0.66-0.18,1.31-0.39,1.93-0.68c0.32-0.19,0.64-0.38,0.96-0.57
		c0.47-0.28,0.72-0.69,0.76-1.23c0.22-1.39,0.3-2.78,0.32-4.18c0.24-0.48,0.47-0.95,0.65-1.46c1.26-1.42,2.15-3.13,2.68-4.97
		c1.62-2.11,2.53-4.73,2.72-7.41c1.03-1.6,1.74-3.41,2.02-5.32c0.96-1.57,1.54-3.36,1.81-5.2c0.85-1.18,1.47-2.52,1.89-3.92
		c0.8-1.6,1.28-3.37,1.43-5.18c0.09-0.21,0.2-0.41,0.29-0.63c2.64-2.44,3.97-6,4.04-9.6c0.06-0.06,0.14-0.12,0.2-0.19
		c1.06-1.35,1.6-2.8,1.68-4.51c0-0.08-0.01-0.17-0.01-0.25c0.19-0.11,0.39-0.21,0.57-0.34c0.22-0.2,0.44-0.4,0.66-0.6
		c0.36-0.4,0.58-0.86,0.67-1.38v-2.06c0.16-0.13,0.33-0.26,0.5-0.38c0.28-0.22,1.03-0.83,0.83-1.32
		C419.98,599.14,419.32,598.99,418.81,598.95z"/>
	<path d="M316.62,379.66c-1.26,0-2.31,0.32-3.19,0.82c-2.27-0.14-4.56,0-6.84-0.25c-0.29-0.05-1.11-0.17-1.24-0.19
		c-0.92-0.16-1.84-0.34-2.75-0.53c-1.49-0.3-2.98-0.63-4.47-0.91c-3.48-0.67-6.98-1.11-10.53-1.13c-0.71,0-1.42,0-2.13-0.01
		c-1.22-0.27-2.44-0.53-3.68-0.71c-0.05-0.03-0.09-0.06-0.12-0.08c-1.68-1.44-4.02-2.08-6.13-1.6c-0.73-0.3-1.55-0.47-2.5-0.47
		c-0.97,0-1.81,0.19-2.56,0.5c-0.21-0.05-0.4-0.13-0.62-0.15c-0.04-0.01-0.09,0-0.13-0.01c-0.25-0.03-0.5-0.06-0.77-0.06
		c-0.04,0-0.07,0.01-0.11,0.01c-0.35,0-0.7,0.05-1.04,0.12c-0.94,0.16-1.75,0.49-2.43,0.96c-0.11,0-0.22-0.01-0.33-0.01
		c-1.76,0.04-3.2,0.44-4.77,1.19c-0.51,0.24-0.91,0.59-1.36,0.94c-0.45,0.34-0.89,0.66-1.27,1.08c-0.09,0.09-0.15,0.21-0.23,0.3
		c-0.24,0.08-0.48,0.14-0.71,0.26c-0.81,0.26-1.51,0.71-2.1,1.35c-0.34,0.44-0.68,0.88-1.02,1.32c-0.53,0.91-0.78,1.89-0.84,2.93
		c-0.57,0.7-1.03,1.47-1.28,2.36c-0.95,2.26-0.8,4.69-0.45,7.05c0.22,0.52,0.44,1.04,0.66,1.56c0.01,0.02,0.02,0.03,0.03,0.05
		c-2.03,2.5-1.92,6.55,0.26,8.93c-0.19,1.15-0.31,2.22-0.31,3.36c0,0.06,0.02,0.11,0.02,0.17c-1.04,2.46-0.64,5.56,1.19,7.5
		c-0.06,0.06-0.14,0.1-0.2,0.16c-0.4,0.51-0.79,1.02-1.19,1.53c-0.21,0.22-0.31,0.47-0.28,0.75c-0.05,0.25,0.03,0.47,0.25,0.65
		c0.24,0.21,0.52,0.34,0.83,0.39c0.38,0.13,0.77,0.18,1.18,0.15c0.32-0.02,0.63-0.05,0.95-0.07c0.69-0.1,1.36-0.28,2.01-0.54
		c0.29-0.14,0.57-0.27,0.86-0.41c0.41-0.22,0.76-0.52,1.07-0.87c3.34-0.44,5.12-3.1,5.31-5.92l0.17-0.22
		c0.25-0.44,0.42-0.89,0.57-1.36c1.12-1,1.77-2.4,2-3.88c0.87-0.99,1.37-2.25,1.54-3.56c1.55-1.88,1.9-4.67,1.04-6.96
		c0.01-0.13,0.04-0.26,0.05-0.39c0.34,0.05,0.68,0.11,1.06,0.11c0.05,0,0.09-0.01,0.13-0.01c0.81,2.06,1.85,3.81,3.53,5.29
		c1.58,1.39,3.17,2.56,5.11,3.38c1.38,0.58,2.83,0.98,4.28,1.34c1.03,1.54,2.72,2.63,5.14,2.63c1.29,0,2.36-0.34,3.26-0.86
		c0.93,0.62,2.07,1.03,3.48,1.03c0.95,0,1.78-0.19,2.51-0.48c0.46,0.1,0.95,0.15,1.48,0.15c0.8,0,1.5-0.15,2.15-0.37
		c0.51,0.13,1.07,0.2,1.68,0.2c0.49,0,0.95-0.05,1.38-0.14c0.59,0.18,1.23,0.3,1.95,0.3c3.26,0,5.22-1.97,5.93-4.37
		c2.22-0.65,3.59-2.37,4.1-4.38c0.49-0.6,0.78-1.3,1.01-2.04c1.97-1.18,2.99-3.39,2.99-5.62c1.05-0.76,1.8-1.79,2.19-3
		C323.94,385.07,322.04,379.66,316.62,379.66z"/>
	<line class="st5" x1="300.23" y1="817.77" x2="313.54" y2="827.75"/>
	<line class="st5" x1="193.74" y1="826.42" x2="208.8" y2="816.73"/>
	<path d="M333.75,851.81c-0.12-0.3-0.34-0.52-0.65-0.65c-0.15-0.08-0.33-0.09-0.49-0.14c-0.2-0.18-0.38-0.38-0.55-0.59
		c-0.04-0.06-0.08-0.13-0.12-0.19c0,0,0,0,0.01,0c0.25-0.25,0.41-0.56,0.48-0.92c-0.01-0.2-0.01-0.41-0.02-0.61
		c-0.14-0.43-0.41-0.75-0.81-0.95c-0.09-0.03-0.17-0.07-0.26-0.1c0.33-0.94-0.3-1.41-1.16-1.59c-0.11-1.54-0.65-3.04-1.72-4.15
		c-0.65-1.43-1.74-2.65-3.4-3.21c-0.24-2.22-1.43-4.32-3.66-5.22c-0.89-1.38-2.33-2.38-4.32-2.62c-0.3-0.78-0.75-1.5-1.37-2.07
		c-0.44-0.34-0.88-0.68-1.32-1.02c-0.66-0.38-1.36-0.59-2.09-0.73c-0.97-1.76-2.93-3-4.79-3.51c-0.27-0.07-0.54-0.11-0.81-0.16
		c-0.18-0.21-0.35-0.42-0.52-0.63c-0.42-0.55-0.85-1.1-1.27-1.65c-0.34-0.44-0.68-0.88-1.02-1.32c-0.59-0.64-1.29-1.08-2.1-1.35
		c-1.29-0.55-2.87-0.77-4.24-0.33c-1.07,0.35-2.04,0.91-2.88,1.68c-0.64,0.59-1.08,1.29-1.35,2.1c-0.05,0.09-0.07,0.18-0.11,0.27
		c-7.7,0.14-8.18,11.39-1.39,12.86c0.7,0.46,1.52,0.81,2.49,0.95c0.46,0.3,0.99,0.54,1.57,0.7c0.91,1.26,2.28,2.2,4.17,2.42
		c0.73,1.03,1.78,1.85,3.17,2.24c0.91,1.7,2.56,2.97,4.99,3.12c0.91,0.93,2.15,1.6,3.75,1.75c0.18,0.24,0.37,0.47,0.55,0.71
		c0.81,0.81,1.77,1.37,2.88,1.68c0.11,0.03,0.21,0.07,0.31,0.1c0.21,0.11,0.4,0.23,0.6,0.35c0.22,0.21,0.44,0.41,0.64,0.64
		c0.31,0.37,0.66,0.7,1.07,0.97c0.53,0.48,1.16,0.81,1.84,1.03c1.02,0.89,2.38,1.47,4.12,1.47c0.34,0,0.66-0.03,0.97-0.07
		c0.18,0.23,0.37,0.44,0.59,0.63c0.07,0.04,0.15,0.04,0.22,0.07c0.07,0.33,0.25,0.63,0.47,0.91c0,0.42,0,0.84,0.07,1.25
		c0.08,0.32,0.26,0.55,0.54,0.71c0.27,0.24,0.59,0.4,0.96,0.46c0.44,0.11,0.88,0.15,1.33,0.1c0.51,0.01,1.01-0.06,1.5-0.21
		c0.33-0.11,0.66-0.23,0.98-0.34c0.57-0.24,1.07-0.56,1.52-0.98c0.16-0.19,0.32-0.38,0.48-0.58c0.25-0.36,0.32-0.76,0.24-1.18
		c-0.02-0.12-0.02-0.25-0.04-0.37c0.01-0.29,0.02-0.59,0.09-0.87C333.98,852.33,333.93,852.05,333.75,851.81z"/>
	<path d="M214.2,838.15c0.11-2.01-0.58-4.04-2.07-5.39c0.25-1.85-0.17-3.81-1.31-5.27c0.18-2.11-0.52-4.29-2.1-5.68
		c0.1-0.13,0.19-0.27,0.32-0.39c-0.08,0.08-0.17,0.16-0.25,0.23c0.24-0.17,0.44-0.36,0.57-0.62c0.15-0.17,0.2-0.38,0.17-0.61
		c0.12-0.12,0.23-0.24,0.31-0.38c0.8-1.41-0.69-1.55-1.87-1.55c-1.37,0-4.28,0.57-5.03,1.89c-0.06,0.1-0.08,0.19-0.12,0.28
		c-2.02,0.55-3.4,1.93-4.04,3.66c-0.81,0.21-1.52,0.58-2.12,1.13c-0.71,0.46-1.27,1.07-1.68,1.83c-0.48,0.75-0.73,1.56-0.77,2.42
		c-0.19,0.87-0.16,1.73,0.12,2.6c0.03,0.06,0.05,0.13,0.08,0.19c-0.05,0.48-0.07,0.96-0.03,1.43c-0.42,1.17-0.53,2.45-0.34,3.68
		c-0.67,0.82-1.11,1.82-1.32,2.87c-1.64,1.8-2.06,4.52-1.31,6.84c-0.99,0.96-1.58,2.24-1.82,3.59c-0.01,0.01-0.03,0.01-0.04,0.02
		c-0.39,0.27-0.92,0.59-0.88,1.13c0,0.08-0.01,0.16-0.01,0.25c-1.02,0.55-1.89,1.31-2.12,2.49c-0.01,0.07-0.01,0.13-0.02,0.2
		c-0.51,0.84-1,1.68-1.43,2.56c-0.23,0.46-0.4,0.94-0.6,1.41c-0.65,0.23-1.28,0.5-1.84,0.83c-2.34,1.42-4.28,3.5-5.3,6.06
		c-0.5,1.27,2.54,0.83,3.03,0.74c0.98-0.19,1.98-0.45,2.88-0.9c0.27-0.13,0.59-0.29,0.89-0.48c0.78-0.22,1.55-0.48,2.28-0.83
		c0.23-0.11,0.47-0.25,0.69-0.39c0.76,0.05,1.53-0.01,2.26-0.22c3.38-0.95,6.56-2.81,8.78-5.57c1.01-0.39,1.85-0.99,2.46-1.77
		c2.06-0.79,3.3-2.57,3.71-4.57c0.37-0.46,0.76-0.92,1.09-1.42c0.01-0.02,0.02-0.03,0.03-0.05c2.14-0.62,3.49-2.24,4.05-4.14
		C213.46,845.51,215.06,841.52,214.2,838.15z"/>
</g>
</svg>
