<?xml version="1.0" encoding="utf-8"?>
<!-- Generator: Adobe Illustrator 23.0.5, SVG Export Plug-In . SVG Version: 6.00 Build 0)  -->
<svg version="1.1" id="Слой_1" xmlns="http://www.w3.org/2000/svg" xmlns:xlink="http://www.w3.org/1999/xlink" x="0px" y="0px"
	 viewBox="0 0 1440 900" style="enable-background:new 0 0 1440 900;" xml:space="preserve">
<style type="text/css">
	.st0{fill:none;stroke:#000000;stroke-miterlimit:10;}
	.st1{fill:#FFFFFF;stroke:#000000;stroke-miterlimit:10;}
	.st2{fill:#201600;}
	.st3{stroke:#000000;stroke-miterlimit:10;}
	.st4{font-family:'ArialMT';}
	.st5{font-size:51.1273px;}
</style>
<g>
	<path d="M741.08,596.05c0,0-127.03,51.33-99.18,72.21c0,0,117.45,136.6,128.77,139.21c0,0-13.05,26.97-12.18,33.06
		s45.24-35.67,45.24-35.67s-87-153.13-93.09-140.95c0,0,147.91,33.06,140.08-64.38l0.29-3.48"/>
	<path class="st0" d="M637.55,660.43c0,0-42.63,33.06-73.95,154.87v7.83l-33.06,14.79h49.59c0,0,90.48-120.07,83.52-137.47"/>
	<line class="st0" x1="563.59" y1="823.13" x2="591.14" y2="823.13"/>
	<path class="st1" d="M1035.73,596.05H395.68c-4.64,0-8.56-3.77-8.56-8.56v-3.05c0-4.64,3.77-8.56,8.56-8.56h640.06
		c4.64,0,8.56,3.77,8.56,8.56v3.05C1044.29,592.14,1040.52,596.05,1035.73,596.05z"/>
	<path class="st0" d="M850.85,577.78c0,0,42.63-64.38,0-107.01c0,0,34.8,59.16,96.57,12.18c0,0,10.44,13.05,20.01,11.31
		c0,0,42.63-20.01-17.4-38.28l-45.24,6.96c0,0-50.46-55.68-97.44-43.5c0,0-16.53,26.1-33.93-1.74c0,0-83.52-3.48-73.95,60.9h13.92
		l19.14,88.74l34.8,0.87l2.61,9.57"/>
	<polyline class="st0" points="700.33,478.6 594.91,478.6 614.92,576.91 	"/>
	<path class="st0" d="M608.83,539.5l-28.71,5.22c0,0-45.24-6.96-33.93,20.88l3.48,10.44"/>
	<path class="st0" d="M585.49,543.7c0,0,30.02,21.9,0,32.34"/>
	<path class="st0" d="M950.03,455.97c0,0-22.62,15.66-2.61,26.97"/>
	<path class="st0" d="M733.39,687.4c0,0,140.08,23.49,157.48-88.74"/>
	<path class="st0" d="M897.83,574.3c0,0,16.53-67.57,13.05-70.33"/>
	<path class="st0" d="M912.62,458.44c0,0-14.79-122.68-87.87-42.63"/>
	<path class="st0" d="M808.51,373.61"/>
	<path class="st0" d="M809.81,375.79c0,0-18.56,3.48-14.5,20.3h14.5"/>
	<path class="st0" d="M774.58,393.77c0,0,1.16-19.72,7.54-11.6c6.38,8.12,3.48,11.6,3.48,11.6l-3.19,16.39
		c0,0,32.19,29.58,25.23,11.31c-6.96-18.27-0.87-17.4-0.87-17.4c5.22-9.57,3.48-26.1,1.74-30.45c-1.74-4.35,8.7-3.48,8.7-3.48
		c-1.74-21.75-19.14-6.96-21.75-9.57c-2.61-2.61-7.83-5.22-7.83-5.22c-48.72,15.66-13.92,36.54-13.92,36.54v24.36"/>
	<path d="M816.48,366.65c0.14-1.45-0.29-2.9-1.45-3.92l0,0c-0.14-1.89-1.45-3.77-4.06-3.77c-0.29,0-0.73,0-1.02,0.14
		c-0.14,0-0.43,0-0.58-0.14c-0.87-0.15-1.6-0.29-2.47-0.29c-1.16-0.15-2.47,0-3.63,0.29c-0.73,0.14-1.45,0.43-2.03,0.87
		c-0.43,0.29-0.87,0.58-1.31,1.02c-0.87-0.15-1.89-0.29-2.9,0c-0.29,0-0.73,0.15-1.02,0.15c-0.14,0-0.14,0-0.29,0c0,0-0.14,0-0.29,0
		s-0.29,0-0.43,0c-0.58-0.87-1.45-1.45-2.47-1.74c-0.43-0.58-0.73-1.02-1.16-1.45c-1.16-1.16-2.76-1.89-4.35-1.89
		c-1.45,0-2.9,0.58-4.35,1.31c-0.87,0.43-1.6,0.87-2.32,1.31l0,0c-0.58,0-1.02,0.14-1.6,0.58c-0.29,0.15-0.43,0.29-0.73,0.44
		c-0.72,0-1.45,0.14-2.18,0.29c-0.43,0.15-1.02,0.29-1.31,0.58c-0.87,0.29-1.89,0.58-2.61,1.02c-0.43,0.15-0.73,0.43-1.02,0.73
		c-1.16,0.14-2.18,1.02-2.9,2.03c-2.18,0.29-3.34,1.89-3.48,3.77c-0.73,0.58-1.16,1.31-1.31,2.18c-0.58,0.58-1.02,1.31-1.16,2.03
		c-1.45,1.74-1.31,4.64,0.29,6.24c0,0.15,0,0.29,0,0.44c0.14,1.16,0.43,2.18,1.31,3.05c0.29,0.29,0.58,0.58,1.02,0.73
		c0,1.45,0.58,2.9,1.89,3.63c0.14,0.29,0.43,0.43,0.73,0.58c0.58,1.31,1.89,2.32,3.63,2.32c0,0,0,0,0.14,0
		c0,0.43,0.14,0.87,0.43,1.16c0.14,0.73,0.58,1.45,1.6,1.45c1.74,0,2.03-2.03,1.16-2.9c0-0.15,0-0.29-0.14-0.43
		c0.14-0.29,0.14-0.73,0-1.02c0.43-0.73,0.73-1.45,0.73-2.18c1.02-1.02,1.31-2.61,1.16-4.06c0.15-0.15,0.15-0.15,0.29-0.29
		c0.73-0.29,1.31-0.73,1.74-1.31c0.14,0,0.29,0,0.29,0c0.29,0,0.43,0,0.73,0c0.58,0.29,1.31,0.58,2.03,0.58l0,0
		c0.14,0.29,0.14,0.43,0.29,0.73c0.14,1.6,1.16,3.19,3.05,3.63c0,0.15,0.14,0.43,0.14,0.58s0,0.43,0.14,0.58c0,0,0,0,0,0.15
		c0.14,1.16,0.43,2.18,1.31,3.05c0.14,0.15,0.29,0.29,0.43,0.43v0.15c-0.43,1.02-0.58,2.18-0.43,3.19
		c-0.43,0.87-0.43,1.89-0.29,2.76c-1.89,1.31-2.32,4.21-1.16,6.09c-1.89,1.16-2.32,3.77-1.31,5.8c-0.29,0.58-0.43,1.16-0.29,1.6
		c0,1.02,0.43,2.32,1.31,3.05c0.43,0.29,0.73,0.58,1.16,0.87c0.43,0.15,0.73,0.43,1.16,0.58c0.29,1.6,1.31,3.05,3.19,3.48
		c0.58,0.87,1.45,1.6,2.61,1.89c0.43,1.02,1.31,1.89,2.61,2.18c0.73,1.02,1.74,1.74,3.34,1.74l0,0c0.29,0.43,0.73,0.73,1.31,1.02
		c0.58,1.16,1.74,2.18,3.63,2.18c0,0,0,0,0.14,0c0.14,0.15,0.29,0.29,0.58,0.43c0.14,0.58,0.73,1.16,1.45,1.16
		c0.29,0,0.58-0.15,0.72-0.15c0.29,0.15,0.43,0.15,0.73,0.15c2.03,0,2.18-2.76,0.58-3.34c0-0.43,0-1.02-0.43-1.31
		c0.43-1.74-0.14-3.63-1.6-4.64c0.29-1.31,0.14-2.61-0.43-3.63c-0.14-0.87-0.43-1.6-1.16-2.18c0.43-1.31,0.29-3.05-0.43-4.21
		c0.29-0.73,0.43-1.45,0.43-2.18c1.02-0.29,1.74-1.02,2.18-1.89c1.02-0.87,1.45-2.32,1.31-3.63c0.43-0.15,0.73-0.43,1.02-0.73
		c1.45-0.58,1.31-3.34-0.73-3.34c-0.73,0-1.16,0.43-1.45,0.87c-0.14,0-0.14,0.15-0.29,0.15c-0.72-0.58-1.6-0.87-2.61-0.87
		c-0.87,0-1.6,0.29-2.18,0.58c-0.43-0.15-1.02-0.29-1.74-0.29c-0.58,0-1.16,0.15-1.74,0.29c-0.58-0.43-1.31-0.58-2.18-0.58
		c-0.29,0-0.43,0-0.73,0.15c0-0.87-0.14-1.89-0.58-2.76c0-0.29,0-0.43-0.14-0.73c0.14-0.58,0.29-1.31,0.14-2.03
		c0.58-1.16,0.58-2.61,0.15-3.77c0.43-0.15,0.73-0.43,1.02-0.73c0.73-0.73,1.02-1.6,1.16-2.76l0,0c0,0.15,0,0.43-0.14,0.73
		c0-0.29,0.14-0.58,0.14-0.87c0.15-0.43,0.43-0.73,0.73-1.16c0.73-1.02,1.6-1.89,2.47-2.9c1.74,0,2.9-1.02,3.48-2.18
		c0.14,0,0.29,0,0.43,0c1.31,0,2.18-0.43,2.9-1.16c0.14,0,0.14,0,0.29,0c1.89,0,2.18-2.32,0.87-3.05c0-0.29,0-0.58,0-0.87
		c1.31-0.29,2.03-1.16,2.47-2.18c0.58,0.29,1.16,0.43,2.03,0.43c1.16,0,1.89-0.29,2.61-0.87c0.15,0,0.15,0,0.29,0
		C816.92,369.55,817.35,367.52,816.48,366.65z"/>
	<polyline class="st2" points="966.85,596.05 919,833.57 975.55,610.84 1026.02,833.57 988.61,596.05 	"/>
	<polyline class="st2" points="445.85,596.34 398,834.01 454.55,611.13 505.01,834.01 467.6,596.34 	"/>
	<path class="st1" d="M692.79,247.46H478.18c-11.89,0-21.46,9.57-21.46,21.46V381.3c0,11.89,9.57,21.46,21.46,21.46h172.56
		l34.8,34.8l-17.4-34.8h24.65c11.89,0,21.46-9.57,21.46-21.46V268.92C714.25,257.17,704.68,247.46,692.79,247.46z"/>
	<line class="st0" x1="491.09" y1="265.73" x2="491.09" y2="380.57"/>
	<line class="st0" x1="503.27" y1="265.73" x2="585.49" y2="265.73"/>
	<line class="st0" x1="608.83" y1="265.73" x2="679.45" y2="265.73"/>
	<line class="st0" x1="503.27" y1="281.82" x2="629.86" y2="281.82"/>
	<line class="st0" x1="647.55" y1="281.82" x2="679.45" y2="281.82"/>
	<line class="st0" x1="503.99" y1="302.99" x2="586.21" y2="302.99"/>
	<line class="st0" x1="609.56" y1="302.99" x2="680.18" y2="302.99"/>
	<line class="st0" x1="503.99" y1="319.09" x2="630.59" y2="319.09"/>
	<line class="st0" x1="648.28" y1="319.09" x2="680.18" y2="319.09"/>
	<line class="st0" x1="503.7" y1="335.47" x2="585.78" y2="335.47"/>
	<line class="st0" x1="609.12" y1="335.47" x2="679.89" y2="335.47"/>
	<line class="st0" x1="503.7" y1="351.57" x2="630.3" y2="351.57"/>
	<line class="st0" x1="647.99" y1="351.57" x2="679.89" y2="351.57"/>
	<line class="st0" x1="504.43" y1="372.74" x2="586.5" y2="372.74"/>
	<line class="st0" x1="609.85" y1="372.74" x2="680.61" y2="372.74"/>
	<path class="st1" d="M794.44,242.67h-56.55c-9.14,0-16.68-7.4-16.68-16.68v-56.55c0-9.28,7.4-16.68,16.68-16.68h56.55
		c9.14,0,16.68,7.4,16.68,16.68v56.55C811.12,235.13,803.72,242.67,794.44,242.67z"/>
	<path class="st1" d="M917.55,152.77H861c-9.14,0-16.68-7.4-16.68-16.68V79.54c0-9.28,7.4-16.68,16.68-16.68h56.55
		c9.14,0,16.68,7.4,16.68,16.68v56.55C934.23,145.23,926.83,152.77,917.55,152.77z"/>
	<path class="st1" d="M1012.39,295.89h-56.55c-9.14,0-16.68-7.4-16.68-16.68v-56.55c0-9.28,7.4-16.68,16.68-16.68h56.55
		c9.14,0,16.68,7.4,16.68,16.68v56.55C1029.06,288.49,1021.52,295.89,1012.39,295.89z"/>
	<line class="st0" x1="766.17" y1="144.07" x2="766.17" y2="100.56"/>
	<line class="st0" x1="840.41" y1="100.56" x2="766.17" y2="100.56"/>
	<line class="st0" x1="939.16" y1="100.56" x2="984.11" y2="100.56"/>
	<line class="st0" x1="984.11" y1="100.56" x2="984.11" y2="197.72"/>
	<g>
		<g>
			<g>
				<g>
					<path class="st3" d="M789.08,212.94c2.47-3.77,4.06-7.98,4.5-12.47l0,0c1.02,0.15,1.89,0.73,2.47,1.6
						c0.58,0.87,0.87,2.18,0.43,3.48l-0.43,1.45l-0.43,1.31c-0.29,0.87-0.73,1.74-1.16,2.61c-0.29,0.58-0.73,1.16-1.16,1.6
						c-0.43,0.43-1.02,0.73-1.45,0.87C790.96,213.67,789.95,213.67,789.08,212.94z"/>
					<path class="st3" d="M783.28,211.2c1.45-1.89,2.61-3.92,3.34-6.09c0.73-2.18,1.31-4.5,1.31-6.82l5.66,0.15
						c0,2.9-0.73,5.8-1.6,8.56c-1.02,2.76-2.47,5.37-4.35,7.69L783.28,211.2z"/>
				</g>
				<g>
					<path class="st3" d="M773.85,224.11c4.35-1.16,8.27-3.63,11.46-6.67c0.73,0.73,1.02,1.74,0.87,2.9
						c-0.14,1.16-0.87,2.18-1.89,2.9c-1.6,1.16-3.19,2.03-4.93,2.9c-1.16,0.58-2.47,0.58-3.48,0.15
						C774.87,225.99,774.14,225.12,773.85,224.11L773.85,224.11z"/>
					<path class="st3" d="M770.66,219.18c4.5-1.02,8.85-3.34,11.89-6.96l4.21,3.77c-3.92,4.5-9.28,7.4-14.94,8.7L770.66,219.18z"/>
				</g>
				<g>
					<path class="st3" d="M755.15,222.8c4.06,1.89,8.7,2.61,13.05,2.18c0.29,2.18-1.74,4.06-4.5,3.92
						c-1.89-0.15-3.77-0.43-5.66-1.02c-1.31-0.29-2.32-1.16-2.76-2.18C754.71,224.98,754.71,223.82,755.15,222.8z"/>
					<path class="st3" d="M755.73,217c4.06,2.18,8.99,3.05,13.63,2.32l0.87,5.51c-5.8,0.87-11.89-0.29-17.11-2.9L755.73,217z"/>
				</g>
				<g>
					<path class="st3" d="M741.51,209.9c1.89,4.06,4.93,7.54,8.56,10.15c-0.58,0.87-1.6,1.31-2.61,1.45c-1.16,0-2.32-0.43-3.19-1.31
						c-0.73-0.73-1.31-1.45-1.89-2.18c-0.58-0.73-1.16-1.45-1.74-2.32c-0.73-1.02-1.02-2.32-0.73-3.48
						C739.92,211.2,740.5,210.33,741.51,209.9z"/>
					<path class="st3" d="M745.87,205.84c0.87,2.18,2.03,4.21,3.63,5.95c1.45,1.74,3.34,3.34,5.37,4.5l-2.9,4.79
						c-2.47-1.6-4.79-3.48-6.67-5.66c-1.89-2.32-3.34-4.79-4.5-7.54L745.87,205.84z"/>
				</g>
				<g>
					<path class="st3" d="M739.48,191.19c-1.16,4.35-1.02,8.99,0,13.2c-1.02,0.29-2.18,0-3.05-0.58c-0.87-0.73-1.45-1.89-1.6-3.05
						l-0.14-2.9c0-1.02,0.14-1.89,0.14-2.9c0.14-1.31,0.73-2.47,1.6-3.19C737.31,191.19,738.47,190.9,739.48,191.19z"/>
					<path class="st3" d="M745.43,190.76c-0.73,2.18-1.16,4.5-1.16,6.96c0,2.32,0.43,4.64,1.16,6.96l-5.37,1.74
						c-0.87-2.76-1.45-5.66-1.45-8.7c0-2.9,0.43-5.8,1.45-8.7L745.43,190.76z"/>
				</g>
				<g>
					<path class="st3" d="M749.93,175.53c-1.89,1.31-3.34,2.9-4.93,4.5c-1.45,1.74-2.61,3.63-3.63,5.66
						c-1.02-0.44-1.6-1.31-1.89-2.47c-0.14-1.02,0-2.32,0.73-3.48c0.58-0.73,1.16-1.6,1.74-2.32l1.89-2.18
						c1.02-0.87,2.18-1.45,3.19-1.31C748.33,174.08,749.35,174.66,749.93,175.53z"/>
					<path class="st3" d="M754.71,179.01c-2.03,1.31-3.77,2.76-5.37,4.5c-1.45,1.89-2.76,3.77-3.63,5.95l-5.22-2.03
						c1.16-2.76,2.61-5.22,4.5-7.54s4.21-4.21,6.67-5.66L754.71,179.01z"/>
				</g>
				<g>
					<path class="st3" d="M768.05,170.31c-4.5-0.29-8.99,0.44-13.05,2.32c-0.43-1.02-0.43-2.03,0.14-3.05
						c0.58-0.87,1.45-1.89,2.76-2.18c1.89-0.58,3.77-0.87,5.66-1.02c1.31,0,2.61,0.29,3.34,1.02
						C767.62,168.14,768.05,169.15,768.05,170.31z"/>
					<path class="st3" d="M769.36,176.11c-4.64-0.73-9.43,0.15-13.63,2.32l-2.61-4.93c5.22-2.76,11.31-3.92,17.11-3.05
						L769.36,176.11z"/>
				</g>
				<g>
					<path class="st3" d="M785.16,177.85c-3.19-3.05-7.25-5.51-11.46-6.67c0.58-2.03,3.05-3.19,5.51-2.03
						c1.74,0.73,3.34,1.74,4.93,2.9C786.47,173.5,786.76,176.4,785.16,177.85z"/>
					<path class="st3" d="M782.55,183.22c-3.05-3.63-7.4-5.95-11.89-6.96l1.16-5.51c5.8,1.31,11.17,4.21,14.94,8.7L782.55,183.22z"
						/>
				</g>
				<g>
					<path class="st3" d="M793.57,194.67c-0.43-4.5-2.03-8.7-4.64-12.47c0.87-0.58,1.89-0.73,2.9-0.44
						c0.58,0.15,1.02,0.44,1.45,0.87s0.73,0.87,1.16,1.6l0.58,1.31l0.43,1.31c0.29,0.87,0.73,1.74,0.87,2.76
						c0.14,0.58,0.29,1.31,0.14,1.89c-0.14,0.58-0.29,1.16-0.58,1.6C795.46,194.09,794.59,194.53,793.57,194.67z"/>
					<path class="st3" d="M788.06,197.14c0-2.32-0.58-4.64-1.31-6.82s-1.89-4.35-3.34-6.09l4.35-3.48c1.89,2.32,3.34,4.93,4.35,7.69
						c1.02,2.76,1.6,5.66,1.6,8.56L788.06,197.14z"/>
				</g>
			</g>
		</g>
	</g>
	<line class="st0" x1="893.19" y1="86.93" x2="885.36" y2="128.7"/>
	<text transform="matrix(1 0 0 1 851.0741 122.3055)" class="st4 st5">&lt;</text>
	<text transform="matrix(1 0 0 1 897.8402 122.3045)" class="st4 st5">&gt;</text>
	<text transform="matrix(1 0 0 1 964.7767 265.7518)" class="st4 st5">{ }</text>
	<path d="M767.76,572.99c0.58-2.47-0.73-5.22-4.06-5.22c-0.44,0-0.73,0-1.16,0.15c-0.43-0.15-0.73-0.15-1.16-0.15
		c-0.58,0-1.16,0.15-1.6,0.29c-0.43-0.15-1.02-0.29-1.6-0.29c-0.58,0-1.02,0.15-1.45,0.29c-0.73-0.58-1.45-0.87-2.61-0.87
		c-0.87,0-1.74,0.29-2.32,0.73c-0.43-0.29-1.16-0.43-1.74-0.43c-0.72,0-1.31,0.15-1.89,0.43c-0.29,0-0.73-0.15-1.02-0.15
		c-0.14,0-0.29,0-0.43,0c-0.43-0.15-1.02-0.29-1.74-0.29s-1.45,0.14-2.03,0.58c-0.58-0.29-1.16-0.58-2.03-0.58
		c-0.43,0-0.73,0-1.16,0.14c-0.58-0.43-1.45-0.72-2.47-0.72c-0.73,0-1.45,0.15-2.03,0.58c-0.58-0.29-1.16-0.58-2.03-0.58
		c-0.15,0-0.29,0-0.43,0c-0.43-0.15-0.87-0.29-1.45-0.29c-0.14-0.73-0.43-1.31-0.87-1.89c0.73-1.74,0.43-3.92-0.87-5.22
		c0-2.32-0.43-4.5-1.31-6.67c-0.14-2.03-0.58-3.92-1.45-5.8c0.14-2.76-0.29-5.37-1.16-7.98c0.29-4.35-0.87-8.7-3.48-12.04
		c0-1.74-0.29-3.48-0.73-5.22c0.29-3.63-0.29-7.25-1.89-10.44c-0.14-0.87-0.29-1.74-0.58-2.47c-0.15-1.31-0.58-2.61-1.02-3.92
		c-0.14-2.18-0.73-4.35-1.45-6.38c-0.29-2.18-0.87-4.35-1.89-6.24c0-0.29-0.14-0.58-0.29-0.87c1.02-1.74,0.73-4.21-0.87-5.66
		c-0.14-0.58-0.43-1.02-0.73-1.6c0.29-1.02,0.14-2.03-0.14-3.05c0.43-1.02,0-2.61-1.45-2.61c-0.43,0-0.73,0.15-0.87,0.29
		c-0.43-0.15-0.87-0.29-1.45-0.29c-0.87,0-1.6,0.15-2.18,0.58c-1.02-0.43-2.18-0.73-3.63-0.73c-1.16,0-2.03,0.15-2.9,0.43
		c-1.02-0.15-2.03-0.29-3.19-0.29c-1.74,0-3.34,0.29-4.93,0.73c-1.74-0.58-3.63-0.87-5.8-0.87c-1.02,0-2.03,0.14-2.9,0.29
		c-0.87-0.15-1.89-0.29-2.9-0.29c-1.74,0-3.34,0.29-4.79,0.58c-1.45-0.43-3.05-0.58-4.79-0.58c-1.89,0-3.77,0.29-5.37,0.73
		c-1.45-0.29-2.9-0.43-4.5-0.15c-1.02-0.14-2.03-0.29-3.19-0.29c-1.16,0-2.18,0.15-3.05,0.29c-1.45-0.29-2.9-0.58-4.5-0.58
		c-1.31,0-2.47,0.14-3.63,0.29c-1.45-0.43-3.05-0.58-4.79-0.58c-1.45,0-2.9,0.15-4.06,0.43c-1.31-0.29-2.61-0.43-4.06-0.43
		c-1.74,0-3.48,0.29-4.93,0.73c-1.16-0.29-2.47-0.43-3.77-0.43c-1.89,0-3.63,0.29-5.08,0.73c-0.73-0.15-1.6-0.15-2.47-0.15
		c-0.87,0-1.6,0-2.47,0.15c-1.02-0.43-2.18-0.58-3.34-0.58c-0.43,0-0.87,0-1.31,0.15c-0.44,0-0.87-0.15-1.31-0.15
		c-0.58,0-1.16,0-1.6,0.15c-0.43-0.15-1.02-0.15-1.6-0.15c-0.58,0-1.16,0-1.74,0.15c-0.43-0.15-0.87-0.29-1.45-0.29
		c-1.02,0-1.74,0.29-2.47,0.73c-0.29-0.43-0.73-0.73-1.45-0.73c-0.43,0-0.87,0.15-1.16,0.43c-0.29-0.29-0.73-0.43-1.16-0.43
		c-1.89,0-2.18,2.76-0.58,3.19c-1.89,0.29-1.74,3.34,0.29,3.34h0.15c0,0.15,0,0.29,0.14,0.43c-0.58,2.03-0.58,4.35,0.29,6.24
		c-0.29,2.76,0.58,5.66,2.61,7.54c-0.43,3.92,0.43,7.83,2.32,11.17c-0.43,3.92,0.43,7.98,2.32,11.46c0.14,1.6,0.58,3.19,1.02,4.64
		c0,2.9,0.43,5.95,1.74,8.56c0,2.32,0.29,4.79,1.16,6.96c-0.15,2.76,0.43,5.66,1.45,8.12c0,1.16,0.29,2.47,0.58,3.63
		c0.14,2.61,0.73,5.08,1.89,7.4c0.14,1.16,0.43,2.32,0.73,3.48c-0.43,1.6-0.43,3.48,0.14,5.08c-0.14,1.16,0,2.47,0.73,3.34
		c0.43,1.45,1.74,2.76,3.92,2.76c0.73,0,1.45-0.15,2.03-0.43c0.43,0,0.73,0.15,1.16,0.15c1.02,0,2.03-0.15,2.9-0.43
		c1.45,0.43,2.9,0.58,4.64,0.58c1.16,0,2.18-0.15,3.34-0.29c0.29,0,0.58,0,0.87,0c1.74,0.58,3.63,0.87,5.8,0.87
		c2.18,0,4.21-0.43,5.95-1.02c1.6,0.43,3.19,0.73,5.08,0.73c1.74,0,3.48-0.29,4.93-0.73c1.45,0.43,3.19,0.73,4.93,0.73
		c2.47,0,4.79-0.43,6.67-1.31c1.16,0.15,2.18,0.15,3.34,0c0.29,0,0.43,0,0.73,0c0.14,0,0.29,0,0.43,0c1.45,0.43,3.05,0.58,4.79,0.58
		c1.02,0,1.89-0.15,2.9-0.29c1.31,0.29,2.76,0.58,4.35,0.58c1.16,0,2.18-0.15,3.05-0.29c1.02,0.15,1.89,0.29,3.05,0.29
		s2.18-0.15,3.19-0.29c1.02,0.15,2.03,0.29,3.19,0.29c1.02,0,2.03-0.15,3.05-0.29c1.02,0.15,2.03,0.29,3.05,0.29
		c1.74,0,3.34-0.29,4.79-0.73c2.03,1.02,4.5,1.45,7.25,1.45c2.9,0,5.51-0.58,7.69-1.74c0.43,0.15,0.87,0.29,1.45,0.29
		c0.73,0,1.31-0.15,1.89-0.43c0.58,0.29,1.16,0.43,1.89,0.43c0.43,0,0.73,0,1.02-0.15c0.58,0.29,1.16,0.43,1.89,0.43
		c0.87,0,1.6-0.29,2.18-0.58h0.14c0.15,0,0.29,0,0.29,0c0.43,0.15,1.02,0.29,1.74,0.29c0.73,0.73,1.6,1.16,2.9,1.16
		c1.16,0,2.03-0.43,2.76-1.02c0.58,0.29,1.16,0.43,1.89,0.43s1.45-0.15,2.03-0.58c0.58,0.29,1.16,0.58,2.03,0.58
		c0.14,0,0.29,0,0.43,0c0.43,0.15,1.02,0.29,1.6,0.29c0.73,0,1.31-0.15,1.89-0.43c0.29,0.15,0.73,0.15,1.02,0.15
		c0.87,0,1.74-0.29,2.32-0.73c0.43,0.29,1.16,0.43,1.74,0.43s1.02-0.15,1.45-0.29c0.73,0.58,1.45,0.87,2.61,0.87
		c0.58,0,1.16-0.15,1.6-0.29c0.43,0.15,1.02,0.29,1.6,0.29c0.43,0,0.72,0,1.16-0.15c0.43,0.15,0.72,0.15,1.16,0.15
		c0.73,0,1.45-0.15,2.03-0.43c0.29,0.15,0.58,0.29,0.87,0.29C768.49,576.04,768.78,573.86,767.76,572.99z"/>
	<path class="st3" d="M946.99,475.55l3.05,13.05c0,0-4.79,25.23,10.01,26.97v6.09c0,0-12.18-3.92-8.27,53.94h30.45
		c0,0,8.27-53.51-6.96-54.81l0.43-4.35c0,0,14.79,0,11.75-26.1l3.05-14.79l-13.92,10.01h-13.49L946.99,475.55z"/>
	<path class="st3" d="M981.36,572.99c0,0,24.8-21.32,8.7-59.6c0,0-3.48-15.66,8.7,0c0,0,13.05,36.98-14.79,63.08"/>
</g>
</svg>
